<svg width="40" height="40" viewBox="0 0 40 40" fill="none" xmlns="http://www.w3.org/2000/svg">
<g clip-path="url(#clip0_272_661)">
<path d="M35.6259 7.41837C34.6066 7.41837 33.7773 8.24766 33.7773 9.26704C33.7773 10.2863 34.6066 11.1156 35.6259 11.1156C36.6453 11.1156 37.4746 10.2863 37.4746 9.26704C37.4746 8.24766 36.6453 7.41837 35.6259 7.41837ZM35.6259 9.94376C35.2528 9.94376 34.9492 9.64016 34.9492 9.26704C34.9492 8.89391 35.2528 8.59024 35.6259 8.59024C35.9991 8.59024 36.3027 8.89391 36.3027 9.26704C36.3027 9.64016 35.9991 9.94376 35.6259 9.94376Z" fill="white"/>
<path d="M11.5557 12.2324C7.27262 12.2324 3.78809 15.717 3.78809 20C3.78809 24.2831 7.27262 27.7676 11.5557 27.7676C15.8387 27.7676 19.3232 24.2831 19.3232 20C19.3232 15.717 15.8386 12.2324 11.5557 12.2324ZM11.5557 26.5957C7.91879 26.5957 4.95996 23.6369 4.95996 20C4.95996 16.3631 7.91879 13.4043 11.5557 13.4043C15.1925 13.4043 18.1514 16.3631 18.1514 20C18.1514 23.6369 15.1925 26.5957 11.5557 26.5957Z" fill="white"/>
<path d="M33.7773 30.733C33.7773 31.7524 34.6066 32.5817 35.6259 32.5817C36.6453 32.5817 37.4746 31.7524 37.4746 30.733C37.4746 29.7137 36.6453 28.8844 35.6259 28.8844C34.6066 28.8844 33.7773 29.7137 33.7773 30.733ZM35.6259 30.0563C35.9991 30.0563 36.3027 30.3599 36.3027 30.733C36.3027 31.1061 35.9991 31.4098 35.6259 31.4098C35.2528 31.4098 34.9492 31.1061 34.9492 30.733C34.9492 30.3599 35.2527 30.0563 35.6259 30.0563Z" fill="white"/>
<path d="M18.1514 30.733C18.1514 31.7524 18.9807 32.5817 20 32.5817C21.0193 32.5817 21.8486 31.7524 21.8486 30.733C21.8486 29.7137 21.0193 28.8844 20 28.8844C18.9807 28.8844 18.1514 29.7137 18.1514 30.733ZM20 30.0563C20.3732 30.0563 20.6768 30.3599 20.6768 30.733C20.6768 31.1061 20.3732 31.4098 20 31.4098C19.6269 31.4098 19.3232 31.1061 19.3232 30.733C19.3232 30.3599 19.6269 30.0563 20 30.0563Z" fill="white"/>
<path d="M21.8486 9.26704C21.8486 8.24766 21.0193 7.41837 20 7.41837C18.9807 7.41837 18.1514 8.24766 18.1514 9.26704C18.1514 10.2863 18.9807 11.1156 20 11.1156C21.0193 11.1156 21.8486 10.2863 21.8486 9.26704ZM20 9.94376C19.6269 9.94376 19.3232 9.64016 19.3232 9.26704C19.3232 8.89391 19.6268 8.59024 20 8.59024C20.3732 8.59024 20.6768 8.89391 20.6768 9.26704C20.6768 9.64016 20.3732 9.94376 20 9.94376Z" fill="white"/>
<path d="M26.6352 30.1469H23.7883C23.4646 30.1469 23.2023 30.4091 23.2023 30.7328C23.2023 32.4987 21.7658 33.9352 20 33.9352C18.2342 33.9352 16.7977 32.4986 16.7977 30.7328C16.7977 30.4091 16.5353 30.1469 16.2117 30.1469H8.1625C7.83891 30.1469 7.57656 30.4091 7.57656 30.7328C7.57656 32.4987 6.14 33.9352 4.37422 33.9352C2.60844 33.9352 1.17188 32.4986 1.17188 30.7328C1.17188 29.8242 1.56102 28.9545 2.23945 28.3466C2.36352 28.2354 2.43438 28.0767 2.43438 27.9102V12.0898C2.43438 11.9233 2.36352 11.7646 2.23945 11.6534C1.56102 11.0456 1.17188 10.1758 1.17188 9.26719C1.17188 7.50133 2.60844 6.06485 4.37422 6.06485C6.14 6.06485 7.57656 7.50141 7.57656 9.26719C7.57656 9.59087 7.83891 9.85313 8.1625 9.85313H10.9781C11.3017 9.85313 11.5641 9.59087 11.5641 9.26719C11.5641 8.94352 11.3017 8.68126 10.9781 8.68126H8.7093C8.42219 6.54524 6.58758 4.89297 4.37422 4.89297C1.96227 4.89297 0 6.85524 0 9.26719C0 10.4185 0.457031 11.524 1.2625 12.3405V27.6595C0.457031 28.476 0 29.5815 0 30.7328C0 33.1448 1.96227 35.107 4.37422 35.107C6.58758 35.107 8.42219 33.4548 8.7093 31.3188H15.6648C15.952 33.4548 17.7866 35.107 20 35.107C22.2134 35.107 24.048 33.4548 24.3352 31.3188H26.6351C26.9588 31.3188 27.221 31.0565 27.221 30.7328C27.221 30.4091 26.9588 30.1469 26.6352 30.1469Z" fill="white"/>
<path d="M38.7379 12.3405C39.5434 11.524 40.0004 10.4185 40.0004 9.26719C40.0004 6.85524 38.0381 4.89297 35.6262 4.89297C33.4128 4.89297 31.5782 6.54524 31.291 8.68126H24.3355C24.0484 6.54524 22.2137 4.89297 20.0004 4.89297C17.787 4.89297 15.9523 6.54524 15.6652 8.68126H13.7129C13.3893 8.68126 13.127 8.94352 13.127 9.26719C13.127 9.59087 13.3893 9.85313 13.7129 9.85313H16.2121C16.5357 9.85313 16.798 9.59087 16.798 9.26719C16.798 7.50133 18.2346 6.06485 20.0004 6.06485C21.7662 6.06485 23.2027 7.50141 23.2027 9.26719C23.2027 9.59087 23.465 9.85313 23.7887 9.85313H31.8379C32.1616 9.85313 32.4238 9.59087 32.4238 9.26719C32.4238 7.50133 33.8604 6.06485 35.6262 6.06485C37.392 6.06485 38.8285 7.50141 38.8285 9.26719C38.8285 10.1758 38.4395 11.0456 37.7609 11.6534C37.6369 11.7646 37.566 11.9233 37.566 12.0898V27.9102C37.566 28.0767 37.6369 28.2354 37.7609 28.3466C38.4395 28.9545 38.8285 29.8242 38.8285 30.7328C38.8285 32.4987 37.392 33.9352 35.6262 33.9352C33.8604 33.9352 32.4238 32.4986 32.4238 30.7328C32.4238 30.4091 32.1616 30.1469 31.8379 30.1469H29.3699C29.0462 30.1469 28.784 30.4091 28.784 30.7328C28.784 31.0565 29.0462 31.3188 29.3699 31.3188H31.291C31.5782 33.4548 33.4128 35.107 35.6262 35.107C38.0381 35.107 40.0004 33.1448 40.0004 30.7328C40.0004 29.5815 39.5433 28.476 38.7379 27.6595V12.3405Z" fill="white"/>
<path d="M4.37406 32.5817C5.39344 32.5817 6.22273 31.7524 6.22273 30.733C6.22273 29.7137 5.39344 28.8844 4.37406 28.8844C3.35469 28.8844 2.52539 29.7137 2.52539 30.733C2.52539 31.7524 3.35469 32.5817 4.37406 32.5817ZM4.37406 30.0563C4.74719 30.0563 5.05086 30.3599 5.05086 30.733C5.05086 31.1061 4.74727 31.4098 4.37406 31.4098C4.00086 31.4098 3.69727 31.1061 3.69727 30.733C3.69727 30.3599 4.00086 30.0563 4.37406 30.0563Z" fill="white"/>
<path d="M36.2119 20C36.2119 18.0773 35.5037 16.232 34.2177 14.804C34.001 14.5634 33.6304 14.5441 33.3902 14.7606C33.1497 14.9771 33.1304 15.3477 33.3468 15.5881C34.4387 16.8006 35.04 18.3674 35.04 20C35.04 23.6367 32.0814 26.5953 28.4447 26.5953C24.8076 26.5953 21.8486 23.6367 21.8486 20C21.8486 16.3633 24.8076 13.4047 28.4447 13.4047C29.4644 13.4047 30.4415 13.6308 31.3489 14.0767C31.6394 14.2194 31.9905 14.0996 32.1332 13.8092C32.2758 13.5188 32.1561 13.1677 31.8657 13.0249C30.7961 12.4993 29.6451 12.2328 28.4447 12.2328C24.1615 12.2328 20.6768 15.7172 20.6768 20C20.6768 24.2828 24.1614 27.7672 28.4447 27.7672C32.7275 27.7672 36.2119 24.2828 36.2119 20Z" fill="white"/>
<path d="M6.22273 9.26704C6.22273 8.24766 5.39344 7.41837 4.37406 7.41837C3.35469 7.41837 2.52539 8.24766 2.52539 9.26704C2.52539 10.2863 3.35469 11.1156 4.37406 11.1156C5.39344 11.1156 6.22273 10.2863 6.22273 9.26704ZM4.37414 9.94376C4.00102 9.94376 3.69734 9.64016 3.69734 9.26704C3.69734 8.89391 4.00094 8.59024 4.37414 8.59024C4.74734 8.59024 5.05094 8.89391 5.05094 9.26704C5.05094 9.64016 4.74727 9.94376 4.37414 9.94376Z" fill="white"/>
<path d="M20.0005 13.6653C20.3491 13.6653 20.6318 13.3827 20.6318 13.034C20.6318 12.6853 20.3491 12.4026 20.0005 12.4026C19.6518 12.4026 19.3691 12.6853 19.3691 13.034C19.3691 13.3827 19.6518 13.6653 20.0005 13.6653Z" fill="white"/>
<path d="M20.0005 27.5974C20.3491 27.5974 20.6318 27.3147 20.6318 26.966C20.6318 26.6174 20.3491 26.3347 20.0005 26.3347C19.6518 26.3347 19.3691 26.6174 19.3691 26.966C19.3691 27.3147 19.6518 27.5974 20.0005 27.5974Z" fill="white"/>
<path d="M35.6255 13.6653C35.9741 13.6653 36.2568 13.3827 36.2568 13.034C36.2568 12.6853 35.9741 12.4026 35.6255 12.4026C35.2768 12.4026 34.9941 12.6853 34.9941 13.034C34.9941 13.3827 35.2768 13.6653 35.6255 13.6653Z" fill="white"/>
<path d="M35.6255 27.5974C35.9741 27.5974 36.2568 27.3147 36.2568 26.966C36.2568 26.6174 35.9741 26.3347 35.6255 26.3347C35.2768 26.3347 34.9941 26.6174 34.9941 26.966C34.9941 27.3147 35.2768 27.5974 35.6255 27.5974Z" fill="white"/>
<path d="M4.37449 13.6653C4.72316 13.6653 5.00582 13.3827 5.00582 13.034C5.00582 12.6853 4.72316 12.4026 4.37449 12.4026C4.02582 12.4026 3.74316 12.6853 3.74316 13.034C3.74316 13.3827 4.02582 13.6653 4.37449 13.6653Z" fill="white"/>
<path d="M4.37449 27.5974C4.72316 27.5974 5.00582 27.3147 5.00582 26.966C5.00582 26.6174 4.72316 26.3347 4.37449 26.3347C4.02582 26.3347 3.74316 26.6174 3.74316 26.966C3.74316 27.3147 4.02582 27.5974 4.37449 27.5974Z" fill="white"/>
</g>
<defs>
<clipPath id="clip0_272_661">
<rect width="40" height="40" fill="white"/>
</clipPath>
</defs>
</svg>
