<svg width="40" height="40" viewBox="0 0 40 40" fill="none" xmlns="http://www.w3.org/2000/svg">
<path d="M23.8489 38.8281H4.37468C3.56609 38.8281 2.9082 38.1706 2.9082 37.3625V12.7399C2.9082 11.9313 3.56609 11.2735 4.37468 11.2735H17.8361L17.8364 22.6836C17.8364 22.7957 17.7453 22.8868 17.6332 22.8868H14.6059C14.2822 22.8868 14.02 23.1491 14.02 23.4727C14.02 23.7963 14.2822 24.0586 14.6059 24.0586H17.6332C18.3914 24.0586 19.0082 23.4418 19.0082 22.6836V22.0803C19.3057 22.2345 19.6429 22.3221 20.0004 22.3221C20.3579 22.3221 20.6952 22.2345 20.9926 22.0803V22.6836C20.9926 23.4418 21.6095 24.0586 22.3676 24.0586H30.4176C31.1758 24.0586 31.7927 23.4418 31.7927 22.6836V14.7915C31.7927 14.5263 31.896 14.2769 32.0831 14.0899C32.2709 13.9025 32.5205 13.7993 32.7856 13.7993C33.3327 13.7993 33.7777 14.2443 33.7777 14.7915V35.3102C33.7777 35.5753 33.6745 35.8246 33.4868 36.0123C33.2998 36.1994 33.0508 36.3023 32.7856 36.3023C32.2381 36.3023 31.7926 35.8573 31.7926 35.3102V27.4188C31.7926 26.6602 31.1757 26.043 30.4175 26.043H22.3676C21.6095 26.043 20.9926 26.6602 20.9926 27.4188V35.3102C20.9926 35.5753 20.8893 35.8246 20.7017 36.0122C20.5146 36.1993 20.2656 36.3023 20.0004 36.3023C19.4532 36.3023 19.0082 35.8572 19.0082 35.3101V27.4188C19.0082 26.6602 18.3913 26.043 17.6332 26.043H9.58326C8.82506 26.043 8.20819 26.6602 8.20819 27.4188V35.3102C8.20819 35.5753 8.10491 35.8246 7.9178 36.0117C7.72999 36.1991 7.48038 36.3023 7.21522 36.3023C6.66819 36.3023 6.22312 35.8573 6.22312 35.3102V14.7915C6.22312 14.5263 6.3264 14.2769 6.51405 14.0893C6.70108 13.9023 6.95015 13.7993 7.2153 13.7993C7.7628 13.7993 8.20827 14.2443 8.20827 14.7915V22.6836C8.20827 23.4418 8.82514 24.0586 9.58334 24.0586H11.8716C12.1953 24.0586 12.4576 23.7963 12.4576 23.4727C12.4576 23.1491 12.1953 22.8868 11.8716 22.8868H9.58334C9.47131 22.8868 9.38014 22.7956 9.38014 22.6836V14.7915C9.38014 13.5982 8.40897 12.6274 7.2153 12.6274C6.6371 12.6274 6.09382 12.8523 5.68538 13.2608C5.27655 13.6697 5.05132 14.2133 5.05132 14.7915V35.3102C5.05132 36.5034 6.0221 37.4742 7.2153 37.4742C7.79303 37.4742 8.33647 37.2495 8.746 36.8409C9.15491 36.432 9.38014 35.8884 9.38014 35.3102V27.4188C9.38014 27.3064 9.47131 27.2149 9.58334 27.2149H17.6332C17.7453 27.2149 17.8364 27.3064 17.8364 27.4188V35.3102C17.8364 36.5034 18.8072 37.4742 20.0004 37.4742C20.5786 37.4742 21.1219 37.2493 21.5303 36.8409C21.9393 36.432 22.1645 35.8884 22.1645 35.3102V27.4188C22.1645 27.3064 22.2556 27.2149 22.3676 27.2149H30.4176C30.5296 27.2149 30.6208 27.3064 30.6208 27.4188V35.3102C30.6208 36.5034 31.592 37.4742 32.7856 37.4742C33.3638 37.4742 33.9072 37.2493 34.3155 36.8409C34.7244 36.432 34.9496 35.8884 34.9496 35.3102V14.7915C34.9496 13.5982 33.9788 12.6274 32.7856 12.6274C32.208 12.6274 31.6645 12.8521 31.2549 13.2608C30.846 13.6697 30.6208 14.2133 30.6208 14.7915V22.6836C30.6208 22.7957 30.5296 22.8868 30.4176 22.8868H22.3676C22.2556 22.8868 22.1645 22.7956 22.1645 22.6836L22.1647 11.2735H27.3145C27.6381 11.2735 27.9004 11.0112 27.9004 10.6876C27.9004 10.364 27.6381 10.1016 27.3145 10.1016H22.2992L22.6868 8.23842C22.7293 8.03412 22.8365 7.84834 22.9971 7.70116C23.9106 6.86311 24.4346 5.67233 24.4346 4.43421C24.4346 2.04859 22.5396 0.0979686 20.1755 0.00546874C20.11 0.0021875 20.0443 0 19.9779 0C19.8325 0 19.6897 0.00851561 19.5497 0.0238281C19.5483 0.0239843 19.547 0.0240624 19.5457 0.0242187C19.5029 0.0289062 19.4604 0.0344531 19.418 0.0404687C17.2474 0.326718 15.5662 2.18726 15.5662 4.43413C15.5662 5.67225 16.0902 6.86303 17.0037 7.70108C17.1643 7.84827 17.2715 8.03405 17.314 8.23834L17.7016 10.1015H4.37468C2.91992 10.1015 1.73633 11.285 1.73633 12.7397V37.3623C1.73633 38.8166 2.91984 39.9998 4.37468 39.9998H23.8489C24.1725 39.9998 24.4348 39.7375 24.4348 39.4139C24.4348 39.0903 24.1725 38.8281 23.8489 38.8281ZM20.0004 21.1503C19.4547 21.1503 19.0107 20.7075 19.0082 20.1625V20.1579C19.0082 20.1564 19.008 20.155 19.008 20.1534V11.2736H20.9929V20.1533C20.9929 20.1549 20.9926 20.1563 20.9926 20.1579V20.1624C20.9902 20.7075 20.5461 21.1503 20.0004 21.1503ZM21.9575 2.51015C21.9575 3.23554 21.0509 3.84827 19.9779 3.84827C18.9049 3.84827 17.9983 3.23546 17.9983 2.51015C17.9983 1.88023 18.6822 1.33539 19.5649 1.20289C19.7075 1.18375 19.8527 1.17297 20.0004 1.17297C20.0407 1.17297 20.0806 1.17453 20.1205 1.17601C21.13 1.22734 21.9575 1.81718 21.9575 2.51015ZM18.4614 7.99975C18.3686 7.55366 18.1385 7.15178 17.796 6.83756C17.1237 6.22085 16.7381 5.34491 16.7381 4.43421C16.7381 4.01421 16.8188 3.61288 16.9641 3.24382C17.3591 4.27101 18.5606 5.02015 19.9779 5.02015C21.4225 5.02015 22.6424 4.24163 23.0131 3.1839C23.1737 3.56921 23.2628 3.9914 23.2628 4.43421C23.2628 5.34491 22.8771 6.22092 22.2049 6.83756C21.8624 7.1517 21.6323 7.55366 21.5395 7.99967L21.1022 10.1015H18.8986L18.4614 7.99975Z" fill="#E8092E"/>
<path d="M35.626 10.1016H30.0486C29.725 10.1016 29.4627 10.3639 29.4627 10.6875C29.4627 11.0111 29.725 11.2734 30.0486 11.2734H35.626C36.4345 11.2734 37.0924 11.9312 37.0924 12.7398V37.3624C37.0924 38.1706 36.4345 38.8281 35.626 38.8281H26.583C26.2593 38.8281 25.9971 39.0904 25.9971 39.414C25.9971 39.7376 26.2593 39.9999 26.583 39.9999H35.626C37.0807 39.9999 38.2643 38.8167 38.2643 37.3624V12.7398C38.2642 11.2851 37.0807 10.1016 35.626 10.1016Z" fill="#E8092E"/>
<path d="M12.4243 21.5339C12.7479 21.5339 13.0102 21.2716 13.0102 20.948C13.0102 20.6244 12.7479 20.3621 12.4243 20.3621H11.3193C10.9957 20.3621 10.7334 20.6244 10.7334 20.948C10.7334 21.2716 10.9957 21.5339 11.3193 21.5339H12.4243Z" fill="#E8092E"/>
<path d="M11.3193 28.5676C10.9957 28.5676 10.7334 28.83 10.7334 29.1536C10.7334 29.4772 10.9957 29.7395 11.3193 29.7395H12.4243C12.7479 29.7395 13.0102 29.4772 13.0102 29.1536C13.0102 28.83 12.7479 28.5676 12.4243 28.5676H11.3193Z" fill="#E8092E"/>
<path d="M26.9912 20.948C26.9912 21.2716 27.2535 21.5339 27.5771 21.5339H28.6821C29.0057 21.5339 29.268 21.2716 29.268 20.948C29.268 20.6244 29.0057 20.3621 28.6821 20.3621H27.5771C27.2535 20.3621 26.9912 20.6244 26.9912 20.948Z" fill="#E8092E"/>
<path d="M27.5771 28.5676C27.2535 28.5676 26.9912 28.83 26.9912 29.1536C26.9912 29.4772 27.2535 29.7395 27.5771 29.7395H28.6821C29.0057 29.7395 29.268 29.4772 29.268 29.1536C29.268 28.83 29.0057 28.5676 28.6821 28.5676H27.5771Z" fill="#E8092E"/>
</svg>
