<svg width="40" height="40" viewBox="0 0 40 40" fill="none" xmlns="http://www.w3.org/2000/svg">
<g clip-path="url(#clip0_272_647)">
<path d="M19.9997 5.52613C19.5631 5.52613 19.1673 5.7491 18.9412 6.12246L4.68337 29.6536C4.44869 30.041 4.44127 30.5078 4.66361 30.9024C4.88595 31.297 5.289 31.5327 5.74197 31.5327H34.2574C34.7104 31.5327 35.1135 31.2971 35.3358 30.9024C35.5581 30.5078 35.5507 30.0409 35.316 29.6536L21.0582 6.12246C20.832 5.74918 20.4362 5.52613 19.9997 5.52613ZM34.3148 30.3274C34.2959 30.361 34.2689 30.361 34.2574 30.361H5.74197C5.73048 30.361 5.70345 30.361 5.68454 30.3274C5.66564 30.2938 5.67962 30.2707 5.68564 30.2609L19.9434 6.72972C19.9487 6.72105 19.9627 6.69793 19.9998 6.69793C20.0369 6.69793 20.0509 6.72105 20.0561 6.72972L34.3139 30.2609C34.3197 30.2707 34.3337 30.2938 34.3148 30.3274Z" fill="white"/>
<path d="M18.941 13.6695L15.7741 18.8965C15.6064 19.1733 15.6948 19.5335 15.9716 19.7012C16.2484 19.8689 16.6086 19.7805 16.7762 19.5038L19.9431 14.2769C19.9484 14.2682 19.9625 14.245 19.9999 14.245C20.0373 14.245 20.0514 14.2682 20.0566 14.2768L27.3718 26.3503C27.3778 26.3601 27.3918 26.3832 27.3729 26.4168C27.354 26.4505 27.3267 26.4505 27.3151 26.4505H12.6848C12.6731 26.4505 12.6459 26.4505 12.627 26.4168C12.608 26.3832 12.622 26.3601 12.6281 26.3502L15.3592 21.8419C15.5269 21.5651 15.4384 21.2049 15.1616 21.0372C14.8849 20.8696 14.5246 20.9581 14.3569 21.2348L11.6259 25.7429C11.3911 26.1303 11.3836 26.5972 11.6059 26.9919C11.8283 27.3866 12.2316 27.6223 12.6848 27.6223H27.3151C27.7683 27.6223 28.1715 27.3867 28.3939 26.9919C28.6162 26.5971 28.6087 26.1303 28.374 25.743L21.0587 13.6694C20.8324 13.2961 20.4366 13.0733 20 13.0733C19.5633 13.0732 19.1675 13.2961 18.941 13.6695Z" fill="white"/>
<path d="M39.7947 32.0135L26.3752 9.86591C26.2076 9.58919 25.8473 9.50075 25.5705 9.66849C25.2937 9.83614 25.2053 10.1964 25.373 10.4732L38.7927 32.6214C38.8529 32.7204 38.821 32.808 38.7966 32.8513C38.7721 32.8949 38.7135 32.968 38.5967 32.968H28.2505C27.9269 32.968 27.6646 33.2303 27.6646 33.5539C27.6646 33.8774 27.9269 34.1398 28.2505 34.1398H30.2258V35.5747H29.5081C28.8256 35.5747 28.2704 36.1299 28.2704 36.8124V38.116C28.2704 38.7985 28.8256 39.3537 29.5081 39.3537H34.7226C35.4051 39.3537 35.9603 38.7985 35.9603 38.116V36.8124C35.9603 36.1299 35.4051 35.5747 34.7226 35.5747H34.0049V34.1398H38.5967C39.1098 34.1398 39.5663 33.8729 39.8179 33.426C40.0691 32.9794 40.0604 32.4513 39.7947 32.0135ZM34.7885 36.8124V38.1159C34.7885 38.1522 34.759 38.1818 34.7226 38.1818H29.5081C29.4718 38.1818 29.4422 38.1522 29.4422 38.1159V36.8124C29.4422 36.776 29.4717 36.7464 29.5081 36.7464H34.7226C34.7589 36.7464 34.7885 36.776 34.7885 36.8124ZM32.833 35.5746H31.3976V34.1397H32.833V35.5746Z" fill="white"/>
<path d="M17.0238 25.0147H22.9767C23.3642 25.0147 23.723 24.805 23.9131 24.4675C24.1033 24.13 24.0967 23.7144 23.8959 23.383L20.9195 18.4706C20.723 18.1464 20.3794 17.9529 20.0002 17.9529C19.6211 17.9529 19.2775 18.1464 19.081 18.4706L16.1045 23.3831C15.9038 23.7144 15.8972 24.13 16.0874 24.4675C16.2777 24.805 16.6364 25.0147 17.0238 25.0147ZM20.0003 19.2147L22.8045 23.8429H17.1962L20.0003 19.2147Z" fill="white"/>
<path d="M25.516 32.9679H1.40361C1.28674 32.9679 1.22822 32.8948 1.20369 32.8512C1.17932 32.8078 1.14744 32.7203 1.20791 32.6208L19.8042 1.92842C19.8624 1.83248 19.9519 1.8181 20 1.8181C20.0481 1.8181 20.1376 1.83248 20.1957 1.92842L23.9556 8.13419C24.1233 8.41091 24.4837 8.49935 24.7603 8.33169C25.0371 8.16404 25.1255 7.80372 24.9578 7.52693L21.1979 1.32115C20.9419 0.898574 20.4941 0.646309 20 0.646309C19.5059 0.646309 19.0581 0.898574 18.8021 1.32115L0.20588 32.0132C-0.0601353 32.4513 -0.0688072 32.9794 0.182443 33.426C0.434005 33.8729 0.890489 34.1398 1.40361 34.1398H5.99541V35.5747H5.27775C4.59525 35.5747 4.04002 36.1299 4.04002 36.8124V38.116C4.04002 38.7985 4.59525 39.3537 5.27775 39.3537H10.4922C11.1747 39.3537 11.7299 38.7985 11.7299 38.116V36.8124C11.7299 36.1299 11.1747 35.5747 10.4922 35.5747H9.77454V34.1398H25.5161C25.8397 34.1398 26.102 33.8775 26.102 33.5539C26.102 33.2302 25.8396 32.9679 25.516 32.9679ZM10.5581 36.8124V38.1159C10.5581 38.1522 10.5285 38.1818 10.4921 38.1818H5.27775C5.24142 38.1818 5.21181 38.1522 5.21181 38.1159V36.8124C5.21181 36.776 5.24134 36.7464 5.27775 36.7464H10.4922C10.5285 36.7464 10.5581 36.776 10.5581 36.8124ZM8.60267 35.5746H7.1672V34.1397H8.60267V35.5746Z" fill="white"/>
</g>
<defs>
<clipPath id="clip0_272_647">
<rect width="40" height="40" fill="white"/>
</clipPath>
</defs>
</svg>
