<svg width="40" height="40" viewBox="0 0 40 40" fill="none" xmlns="http://www.w3.org/2000/svg">
<path d="M19.5003 33.7245C19.7302 33.9544 20.0359 34.081 20.3611 34.081H22.5259C23.1972 34.081 23.7432 33.5349 23.7432 32.8637V22.6042C23.7432 21.933 23.1972 21.387 22.5259 21.387H17.4752C16.8039 21.387 16.2578 21.933 16.2578 22.6042V29.9776C16.2577 30.3028 16.3844 30.6085 16.6143 30.8386L19.5003 33.7245ZM17.4296 29.6734V28.3199H22.5713V29.6734H17.4296ZM22.5713 27.1481H17.4296V25.7945H22.5713V27.1481ZM22.5259 32.9092H20.361C20.3491 32.9092 20.3373 32.9043 20.329 32.8959C20.329 32.8959 20.3289 32.8959 20.3289 32.8958L18.2784 30.8453H22.5713V32.8637C22.5713 32.8888 22.5509 32.9092 22.5259 32.9092ZM17.4751 22.5588H22.5259C22.5509 22.5588 22.5713 22.5792 22.5713 22.6042V24.6227H17.4296V22.6042C17.4296 22.5792 17.45 22.5588 17.4751 22.5588Z" fill="#E8092E"/>
<path d="M3.74266 21.387C3.07148 21.387 2.52539 21.933 2.52539 22.6042V29.9777C2.52539 30.3029 2.65203 30.6086 2.88195 30.8386L5.76789 33.7245C5.99781 33.9544 6.30352 34.081 6.62867 34.081H8.79352C9.46469 34.081 10.0108 33.5349 10.0108 32.8637V22.6042C10.0108 21.933 9.46469 21.387 8.79352 21.387H3.74266ZM3.69727 29.6734V28.3199H8.83891V29.6734H3.69727ZM8.83891 27.1481H3.69727V25.7945H8.83891V27.1481ZM8.79352 32.9092H6.62867C6.61672 32.9092 6.605 32.9043 6.59656 32.8958L4.54609 30.8453H8.83898V32.8637C8.83891 32.8888 8.81852 32.9092 8.79352 32.9092ZM8.83891 22.6042V24.6227H3.69727V22.6042C3.69727 22.5792 3.71766 22.5588 3.74266 22.5588H8.79352C8.81852 22.5588 8.83891 22.5792 8.83891 22.6042Z" fill="#E8092E"/>
<path d="M31.2066 12.7061C30.5354 12.7061 29.9893 13.2521 29.9893 13.9234V32.8639C29.9893 33.5351 30.5354 34.0812 31.2066 34.0812H36.2574C36.9286 34.0812 37.4746 33.5351 37.4746 32.8639V13.9234C37.4746 13.2521 36.9286 12.7061 36.2574 12.7061H31.2066ZM36.3029 23.9796V25.3331H31.1612V23.9796H36.3029ZM31.1611 22.8077V21.4542H36.3028V22.8077H31.1611ZM36.3029 26.505V27.8585H31.1612V26.505H36.3029ZM36.3029 20.2822H31.1612V18.9287H36.3029V20.2822ZM31.1611 29.0304H36.3028V30.3839H31.1611V29.0304ZM36.3029 17.7568H31.1612V16.4033H36.3029V17.7568ZM36.2575 32.9093H31.2067C31.1816 32.9093 31.1612 32.8889 31.1612 32.8639V31.5558H36.3029V32.8639C36.3029 32.889 36.2825 32.9093 36.2575 32.9093ZM36.3029 13.9234V15.2314H31.1612V13.9234C31.1612 13.8983 31.1816 13.8779 31.2067 13.8779H36.2575C36.2825 13.8779 36.3029 13.8982 36.3029 13.9234Z" fill="#E8092E"/>
<path d="M38.7827 7.09082C39.454 7.09082 40 6.5448 40 5.87355V4.6109C40 3.93965 39.454 3.39355 38.7827 3.39355H1.21734C0.546094 3.39355 0 3.93965 0 4.6109V5.87355C0 6.5448 0.546094 7.09082 1.21734 7.09082H4.41953V18.8618H2.16406C0.970781 18.8618 0 19.8326 0 21.0258V30.2391C0 31.0703 0.32375 31.8517 0.911484 32.4393L4.16695 35.6956C4.7457 36.2743 5.54766 36.6063 6.36727 36.6063H10.372C11.5652 36.6063 12.536 35.6355 12.536 34.4423V27.1353C12.536 26.8116 12.2737 26.5493 11.9501 26.5493C11.6265 26.5493 11.3641 26.8116 11.3641 27.1353V34.4423C11.3641 34.9893 10.9191 35.4344 10.372 35.4344H6.36719C5.85609 35.4344 5.35617 35.2276 4.99563 34.867L1.74016 31.6107C1.37367 31.2443 1.17188 30.7571 1.17188 30.2391V21.0258C1.17188 20.4787 1.61695 20.0336 2.16406 20.0336H10.3719C10.919 20.0336 11.3641 20.4787 11.3641 21.0258V24.4008C11.3641 24.7245 11.6264 24.9868 11.95 24.9868C12.2736 24.9868 12.5359 24.7245 12.5359 24.4008V21.0258C12.5359 19.8326 11.5652 18.8618 10.3719 18.8618H8.1168V7.09082H18.1516V9.39926C18.1516 9.72293 18.4139 9.9852 18.7375 9.9852C19.0611 9.9852 19.3234 9.72293 19.3234 9.39926V7.09082H20.6768V18.8617H19.3234V12.1336C19.3234 11.81 19.0611 11.5477 18.7375 11.5477C18.4139 11.5477 18.1516 11.81 18.1516 12.1336V18.8617H15.8962C14.7028 18.8617 13.7319 19.8326 13.7319 21.026V30.2394C13.7319 31.0706 14.0555 31.8519 14.6432 32.4395L17.8989 35.6952C18.4866 36.2829 19.2679 36.6066 20.099 36.6066H24.1038C25.2971 36.6066 26.268 35.6357 26.268 34.4422V21.026C26.268 19.8326 25.2971 18.8617 24.1038 18.8617H21.8487V7.09082H31.8832V10.1805H29.6281C28.4348 10.1805 27.4641 11.1513 27.4641 12.3446V34.4422C27.4641 35.6354 28.4348 36.6062 29.6281 36.6062H37.8359C39.0292 36.6062 40 35.6354 40 34.4422V16.8414C40 16.5178 39.7377 16.2555 39.4141 16.2555C39.0904 16.2555 38.8281 16.5178 38.8281 16.8414V34.4422C38.8281 34.9893 38.383 35.4343 37.8359 35.4343H29.6281C29.081 35.4343 28.6359 34.9893 28.6359 34.4422V12.3446C28.6359 11.7975 29.081 11.3524 29.6281 11.3524H37.8359C38.383 11.3524 38.8281 11.7975 38.8281 12.3446V14.1071C38.8281 14.4308 39.0904 14.6931 39.4141 14.6931C39.7377 14.6931 40 14.4308 40 14.1071V12.3446C40 11.1513 39.0292 10.1805 37.8359 10.1805H35.5805V7.09082H38.7827ZM25.0962 21.026V34.4422C25.0962 34.9895 24.651 35.4347 24.1038 35.4347H20.099C19.5809 35.4347 19.0939 35.233 18.7276 34.8666L15.4718 31.6108C15.1055 31.2446 14.9038 30.7575 14.9038 30.2394V21.026C14.9038 20.4787 15.349 20.0336 15.8962 20.0336H24.1038C24.651 20.0336 25.0962 20.4787 25.0962 21.026ZM1.17188 5.87355V4.6109C1.17188 4.58582 1.19227 4.56543 1.21734 4.56543H38.7827C38.8077 4.56543 38.8281 4.58582 38.8281 4.6109V5.87355C38.8281 5.89855 38.8077 5.91895 38.7827 5.91895H1.21734C1.19227 5.91895 1.17188 5.89855 1.17188 5.87355ZM6.94492 18.8618H5.59133V7.09082H6.94484L6.94492 18.8618ZM34.4087 10.1805H33.0552V7.09082H34.4087V10.1805Z" fill="#E8092E"/>
</svg>
