<svg width="40" height="40" viewBox="0 0 40 40" fill="none" xmlns="http://www.w3.org/2000/svg">
<path d="M39.9999 18.8954C39.9999 18.2243 39.4539 17.6783 38.7828 17.6783H37.8514L36.5967 10.7767C36.4101 9.74723 35.5147 8.99997 34.4678 8.99997H29.8901L28.214 3.74834C27.8008 2.45349 26.61 1.5835 25.2507 1.5835H14.7381C13.3789 1.5835 12.1879 2.45349 11.7747 3.74834L10.0987 8.99997H5.54288C4.49702 8.99997 3.60179 9.74692 3.41413 10.7764L2.15937 17.6782H1.22828C0.557186 17.6782 0.0111719 18.2242 0.0111719 18.8953V20.1577C0.0111719 20.3851 0.075078 20.5974 0.18414 20.7798C0.0681249 20.9661 0 21.1851 0 21.4203V22.6828C0 23.3535 0.546015 23.8992 1.21719 23.8992H2.11179L3.47999 36.4864C3.59898 37.5866 4.5239 38.4163 5.63124 38.4163H9.52576C9.84943 38.4163 10.1117 38.154 10.1117 37.8304C10.1117 37.5068 9.84943 37.2444 9.52576 37.2444H5.63124C5.12358 37.2444 4.69952 36.8644 4.64499 36.3601L3.29054 23.8992H24.939C25.2627 23.8992 25.525 23.6368 25.525 23.3132C25.525 22.9896 25.2627 22.7273 24.939 22.7273H11.1105C11.1111 22.7123 11.1128 22.6976 11.1128 22.6824V21.3749H28.876V22.6824C28.876 22.6976 28.8778 22.7123 28.8783 22.7273H27.6734C27.3497 22.7273 27.0874 22.9896 27.0874 23.3132C27.0874 23.6368 27.3497 23.8992 27.6734 23.8992H36.6984L35.3439 36.3603C35.2894 36.8644 34.8653 37.2444 34.3577 37.2444H12.2601C11.9365 37.2444 11.6742 37.5068 11.6742 37.8304C11.6742 38.154 11.9365 38.4163 12.2601 38.4163H34.3577C35.4651 38.4163 36.39 37.5866 36.509 36.4867L37.8772 23.8992H38.7718C39.443 23.8992 39.989 23.3535 39.989 22.6828V21.4203C39.989 21.1928 39.9251 20.9803 39.816 20.798C39.9319 20.6117 40 20.3928 40 20.1577L39.9999 18.8954ZM38.8281 18.8954V20.1578C38.8281 20.1827 38.8077 20.203 38.7828 20.203C38.7806 20.203 38.7784 20.2033 38.7762 20.2033C38.7747 20.2033 38.7733 20.2031 38.7718 20.2031H33.835V18.8954C33.835 18.8802 33.8333 18.8653 33.8327 18.8502H38.7829C38.8077 18.8501 38.8281 18.8704 38.8281 18.8954ZM12.8911 4.10459C13.1487 3.29748 13.891 2.75529 14.7382 2.75529H25.2507C26.0979 2.75529 26.8402 3.29748 27.0978 4.10459L28.6602 8.99997H26.7343L25.4543 4.98927C25.3768 4.74638 25.1511 4.58146 24.8961 4.58146H15.0928C14.8378 4.58146 14.6122 4.7463 14.5346 4.98927L13.2546 8.99997H11.3288L12.8911 4.10459ZM4.56702 10.9863C4.65312 10.5143 5.06343 10.1718 5.54288 10.1718H15.1789C15.5025 10.1718 15.7648 9.9095 15.7648 9.5859C15.7648 9.26231 15.5025 8.99997 15.1789 8.99997H14.4847L15.5208 5.75333H24.4679L25.5041 8.99997H17.9132C17.5896 8.99997 17.3273 9.26231 17.3273 9.5859C17.3273 9.9095 17.5896 10.1718 17.9132 10.1718H34.4678C34.9478 10.1718 35.3581 10.5141 35.4437 10.986L36.6603 17.6783H3.35038L4.56702 10.9863ZM1.18304 18.8954C1.18304 18.8705 1.20336 18.8502 1.22828 18.8502H6.15624C6.15569 18.8653 6.15397 18.8802 6.15397 18.8954V20.2031H1.23054C1.22976 20.2031 1.22906 20.203 1.22828 20.203C1.20336 20.203 1.18304 20.1827 1.18304 20.1578V18.8954ZM1.17187 22.6828V21.4203C1.17187 21.3949 1.19179 21.3749 1.21719 21.3749H6.15389V22.6824C6.15389 22.6976 6.15561 22.7123 6.15616 22.7273H1.21719C1.19219 22.7273 1.17187 22.7073 1.17187 22.6828ZM7.36936 22.7273C7.34522 22.7263 7.32585 22.7067 7.32585 22.6824V18.8954C7.32585 18.8705 7.34616 18.8502 7.37108 18.8502H9.89568C9.92061 18.8502 9.94092 18.8705 9.94092 18.8954V22.6824C9.94092 22.7067 9.92146 22.7263 9.8974 22.7273H7.36936ZM11.1128 20.2029V18.8953C11.1128 18.8801 11.1111 18.8653 11.1105 18.8501H28.8784C28.8778 18.8653 28.8761 18.8801 28.8761 18.8953V20.2029H11.1128ZM30.0479 22.6824V18.8954C30.0479 18.8705 30.0682 18.8502 30.0931 18.8502H32.6177C32.6427 18.8502 32.663 18.8705 32.663 18.8954V22.6824C32.663 22.7067 32.6435 22.7263 32.6195 22.7273H30.0914C30.0674 22.7263 30.0479 22.7067 30.0479 22.6824ZM38.817 22.6828C38.817 22.7073 38.7967 22.7273 38.7717 22.7273H33.8327C33.8332 22.7123 33.8349 22.6976 33.8349 22.6824V21.3749H38.7717C38.7971 21.3749 38.817 21.3949 38.817 21.4203V22.6828Z" fill="#E8092E"/>
<path d="M7.75166 31.2485C7.36674 31.2485 7.01166 31.4576 6.8251 31.7943C6.63854 32.1309 6.64932 32.5429 6.8533 32.8692L7.7469 34.2989C7.99979 34.7035 8.43564 34.9451 8.91283 34.9451H12.6631C13.087 34.9451 13.4945 34.7444 13.7527 34.4084L14.9179 32.8937H25.0708L26.2359 34.4084C26.4944 34.7444 26.9018 34.945 27.3257 34.945H31.0759C31.553 34.945 31.9889 34.7034 32.2418 34.2988L33.1353 32.8692C33.3393 32.5428 33.3501 32.1309 33.1636 31.7943C32.9769 31.4576 32.6219 31.2485 32.2371 31.2485H29.5701L29.1473 30.5721L29.5701 29.8957H32.2371C32.622 29.8957 32.977 29.6866 33.1636 29.3499C33.3501 29.0133 33.3393 28.6013 33.1354 28.275L32.2418 26.8454C31.9889 26.4408 31.553 26.1992 31.0759 26.1992H27.3257C26.9018 26.1992 26.4944 26.3998 26.2359 26.7359L25.0708 28.2505H14.9178L13.7527 26.7359C13.4943 26.3998 13.087 26.1992 12.663 26.1992H8.91275C8.43564 26.1992 7.99971 26.4408 7.74674 26.8454L6.85338 28.2749C6.64932 28.6013 6.63854 29.0132 6.8251 29.3498C7.01174 29.6865 7.36682 29.8956 7.75166 29.8956H10.4186L10.8414 30.572L10.4186 31.2484H7.75166V31.2485ZM11.3329 31.9966L11.9246 31.0498C12.1059 30.7597 12.1059 30.3846 11.9246 30.0943L11.3328 29.1475C11.167 28.8822 10.8813 28.7238 10.5684 28.7238H7.95463L8.74049 27.4665C8.77791 27.4067 8.84228 27.371 8.91275 27.371H12.663C12.7256 27.371 12.7856 27.4006 12.8239 27.4502L14.023 29.0091C14.2222 29.2678 14.536 29.4223 14.8625 29.4223H25.1262C25.4527 29.4223 25.7666 29.2678 25.9659 29.0089L27.1647 27.4503C27.203 27.4007 27.2631 27.371 27.3258 27.371H31.076C31.1464 27.371 31.2108 27.4067 31.2481 27.4665L32.034 28.7238H29.4201C29.1073 28.7238 28.8215 28.8822 28.6557 29.1475L28.0639 30.0944C27.8826 30.3846 27.8826 30.7597 28.064 31.0498L28.6558 31.9966C28.8215 32.2619 29.1073 32.4203 29.4201 32.4203H32.0339L31.248 33.6776C31.2106 33.7374 31.1462 33.7731 31.0758 33.7731H27.3256C27.263 33.7731 27.2029 33.7435 27.1646 33.6939L25.9657 32.1352C25.7665 31.8764 25.4526 31.7219 25.1261 31.7219H14.8624C14.5359 31.7219 14.222 31.8764 14.0228 32.1353L12.8238 33.694C12.7856 33.7435 12.7255 33.7731 12.6629 33.7731H8.91267C8.84221 33.7731 8.77775 33.7374 8.74049 33.6777L7.95455 32.4203H10.5683C10.8813 32.4204 11.167 32.2619 11.3329 31.9966Z" fill="#E8092E"/>
</svg>
