<svg width="40" height="40" viewBox="0 0 40 40" fill="none" xmlns="http://www.w3.org/2000/svg">
<g clip-path="url(#clip0_251_2469)">
<path d="M10.2809 22.9209L4.86696 18.6156C2.51868 16.7484 1.17188 13.955 1.17188 10.9518C1.17188 8.34098 2.18969 5.88535 4.03766 4.0373C6.00735 2.068 8.73275 1.02964 11.513 1.18761C14.2937 1.34581 16.8827 2.68675 18.616 4.8666L21.2988 8.24074C21.5001 8.49394 21.8688 8.53605 22.1221 8.33465C22.3753 8.13332 22.4174 7.76465 22.216 7.51137L19.5332 4.13722C17.5923 1.69644 14.6933 0.194793 11.5795 0.0176833C8.46532 -0.159661 5.41462 1.00354 3.20899 3.2087C1.13969 5.27808 0 8.02793 0 10.9518C0 14.3143 1.50805 17.442 4.13758 19.5328L9.55158 23.8381C9.65939 23.9239 9.78806 23.9655 9.91587 23.9655C10.0883 23.9655 10.2592 23.8897 10.3749 23.7442C10.5762 23.4909 10.5342 23.1223 10.2809 22.9209Z" fill="white"/>
<path d="M38.3684 27.8233L23.918 9.65098C23.7165 9.3977 23.348 9.35559 23.0947 9.55707C22.8414 9.75848 22.7994 10.1271 23.0008 10.3804L37.4512 28.5526C38.3384 29.6683 38.827 31.0673 38.827 32.4918C38.827 34.1847 38.1682 35.7757 36.972 36.9719C34.6938 39.2499 31.0744 39.456 28.5528 37.451L12.4204 24.6223C12.1671 24.4208 11.7985 24.4629 11.5971 24.7162C11.3957 24.9695 11.4377 25.3381 11.691 25.5395L27.8235 38.3681C29.1983 39.4613 30.8484 39.9999 32.4925 39.9998C34.4219 39.9998 36.343 39.258 37.8006 37.8004C39.2182 36.383 39.9988 34.4977 39.9988 32.4917C39.9988 30.8034 39.4198 29.1454 38.3684 27.8233Z" fill="white"/>
<path d="M24.2421 31.5452C24.0407 31.7985 24.0827 32.1671 24.336 32.3685L29.3955 36.3921C30.2859 37.0993 31.3569 37.4731 32.4927 37.4731C33.8244 37.4731 35.0754 36.9551 36.0148 36.0147C37.8155 34.2166 37.9649 31.35 36.3723 29.3717C36.3723 29.3717 17.5424 5.69125 17.535 5.68289C15.9257 3.67602 13.5284 2.52539 10.9518 2.52539C8.70253 2.52539 6.5869 3.40227 4.99456 4.99477C3.29791 6.69211 2.40283 9.03977 2.53893 11.4357C2.67479 13.8292 3.82784 16.0576 5.7026 17.551C5.70464 17.5527 22.1963 30.6669 22.1963 30.6669C22.4496 30.8685 22.8182 30.8264 23.0196 30.573C23.221 30.3197 23.179 29.9511 22.9257 29.7497L9.79628 19.3092C10.1777 19.3611 10.565 19.3888 10.9575 19.3888C15.607 19.3888 19.3896 15.6062 19.3896 10.9567C19.3896 10.565 19.3621 10.1783 19.3104 9.79759L33.479 27.6158C31.8998 27.2998 30.1962 27.7519 28.9744 28.9737C27.7521 30.196 27.3001 31.9007 27.6171 33.4805L25.0654 31.4513C24.8122 31.2499 24.4435 31.292 24.2421 31.5452ZM18.2177 10.9567C18.2177 14.96 14.9608 18.2169 10.9575 18.2169C9.30105 18.2169 7.74214 17.6738 6.44815 16.6467L6.43839 16.639C4.82081 15.3531 3.82596 13.4324 3.70885 11.3693C3.59174 9.30618 4.36245 7.28469 5.82331 5.82321C7.19425 4.45227 9.01558 3.69727 10.9518 3.69727C13.1805 3.69727 15.2535 4.69641 16.6392 6.43844L16.6777 6.48688C17.6848 7.77305 18.2177 9.31696 18.2177 10.9567ZM30.0926 35.4479C29.9927 35.3664 29.8952 35.2782 29.803 35.1861C28.3187 33.7018 28.3187 31.2867 29.803 29.8024C31.2873 28.3179 33.7025 28.3179 35.1867 29.8022C35.2888 29.9046 35.3848 30.0127 35.474 30.1248C36.6796 31.6405 36.5559 33.8164 35.186 35.1864C33.867 36.5547 31.5459 36.6764 30.0926 35.4479Z" fill="white"/>
<path d="M9.65088 9.64994C8.93018 10.3707 8.93018 11.5435 9.65088 12.2642C10.0001 12.6134 10.4643 12.8056 10.9581 12.8056C11.4519 12.8056 11.916 12.6133 12.2653 12.2642C12.6144 11.9151 12.8067 11.4508 12.8067 10.9571C12.8067 10.4633 12.6144 9.99908 12.2653 9.64986C11.5445 8.92924 10.3717 8.92916 9.65088 9.64994ZM11.4366 11.4356C11.3088 11.5635 11.1389 11.6339 10.9581 11.6339C10.7774 11.6339 10.6074 11.5635 10.4796 11.4356C10.2157 11.1717 10.2157 10.7424 10.4796 10.4785C10.6115 10.3466 10.7848 10.2806 10.9581 10.2806C11.1314 10.2806 11.3047 10.3466 11.4366 10.4785C11.5645 10.6063 11.6349 10.7763 11.6349 10.9571C11.6348 11.1379 11.5644 11.3078 11.4366 11.4356Z" fill="white"/>
<path d="M14.3648 8.13048L14.3081 8.14563C14.2259 8.04751 14.1398 7.95337 14.0508 7.86431C13.9616 7.77509 13.8674 7.68899 13.7694 7.60688L13.7846 7.55009C14.0457 6.57555 13.513 5.57688 12.5717 5.27649C12.0845 5.12118 11.5697 5.17032 11.122 5.41485C10.6805 5.65602 10.3527 6.07298 10.2226 6.55876L10.1977 6.6518C9.94719 6.69571 9.70117 6.76118 9.46281 6.84759L9.42078 6.80555C8.70726 6.09188 7.57601 6.05407 6.84538 6.71915C6.46718 7.06329 6.25234 7.53376 6.24031 8.04376C6.22851 8.54665 6.42562 9.03899 6.78124 9.3947L6.84851 9.46196C6.76226 9.70032 6.69671 9.94626 6.65281 10.1967L6.59406 10.2125C5.61952 10.4736 5.02101 11.4342 5.23155 12.3996C5.34054 12.8992 5.64046 13.3205 6.07616 13.5859C6.50577 13.8476 7.03078 13.9229 7.51656 13.7928L7.60765 13.7685C7.68976 13.8665 7.77586 13.9607 7.86492 14.0497C7.95398 14.1388 8.0482 14.2249 8.14632 14.307L8.13109 14.3638C7.86992 15.3385 8.40273 16.3371 9.34398 16.6374C9.5307 16.697 9.7214 16.7265 9.91094 16.7265C10.2159 16.7265 10.5176 16.6501 10.7937 16.4992C11.2352 16.258 11.563 15.841 11.6932 15.3552L11.7181 15.2622C11.9686 15.2183 12.2146 15.1528 12.453 15.0665L12.495 15.1085C13.2084 15.8219 14.3398 15.8598 15.0704 15.1949C15.4486 14.8506 15.6634 14.3802 15.6754 13.8701C15.6872 13.3673 15.4901 12.8749 15.1345 12.5192L15.0673 12.452C15.1535 12.2138 15.2191 11.9678 15.263 11.7172L15.3561 11.6923C15.8419 11.5621 16.2588 11.2343 16.5 10.7928C16.7446 10.3452 16.7938 9.83032 16.6383 9.34321C16.3381 8.40196 15.3394 7.86899 14.3648 8.13048ZM15.4716 10.2311C15.382 10.3952 15.2332 10.5122 15.0528 10.5605L14.7886 10.6313C14.4359 10.7258 14.177 11.0211 14.1289 11.3835C14.0926 11.6567 14.0215 11.9237 13.9177 12.1768C13.7793 12.5142 13.8563 12.8985 14.1138 13.1561L14.3058 13.3481C14.4379 13.4802 14.5082 13.6558 14.5038 13.8428C14.4995 14.0295 14.4206 14.202 14.2816 14.3284C14.019 14.5674 13.5893 14.5456 13.3235 14.2801L13.1566 14.1131C12.8991 13.8556 12.5146 13.7787 12.1775 13.917C11.9242 14.0209 11.6573 14.092 11.3843 14.1283C11.0217 14.1763 10.7264 14.4353 10.6318 14.7881L10.5611 15.0521C10.5127 15.2326 10.3958 15.3813 10.2317 15.471C10.0678 15.5604 9.87898 15.5784 9.70008 15.5212C9.36179 15.4133 9.1657 15.0303 9.26289 14.6675L9.32398 14.4398C9.41844 14.087 9.29218 13.7152 9.00218 13.492C8.89273 13.4079 8.7889 13.3168 8.69336 13.2213C8.59789 13.1258 8.50687 13.022 8.42281 12.9127C8.24898 12.6866 7.9846 12.5599 7.70929 12.5599C7.63148 12.5599 7.55281 12.5701 7.47515 12.5909L7.21312 12.6611C7.03273 12.7093 6.84538 12.6824 6.6857 12.5852C6.52624 12.4881 6.4164 12.3335 6.37632 12.1499C6.3007 11.8031 6.53429 11.4417 6.89726 11.3445L7.12695 11.2829C7.47953 11.1884 7.73843 10.8931 7.78671 10.5306C7.82296 10.2575 7.89406 9.99064 7.99796 9.73743C8.13632 9.40009 8.05937 9.01571 7.80187 8.75814L7.60984 8.5661C7.47773 8.43399 7.40742 8.25837 7.41179 8.07142C7.41617 7.8847 7.49507 7.71227 7.63406 7.58587C7.89656 7.34688 8.3264 7.36852 8.59203 7.63423L8.7589 7.8011C9.01648 8.05868 9.40094 8.13556 9.73804 7.9972C9.99133 7.89337 10.2582 7.82227 10.5312 7.78595C10.8937 7.7379 11.1891 7.47891 11.2837 7.12618L11.3545 6.86212C11.4028 6.68165 11.5198 6.5329 11.6838 6.44329C11.8476 6.35376 12.0363 6.33571 12.2155 6.39298C12.5538 6.50087 12.7498 6.88391 12.6527 7.2468L12.5916 7.47446C12.4971 7.82735 12.6235 8.19938 12.9134 8.42212C13.0227 8.5061 13.1265 8.5972 13.2223 8.6929C13.3177 8.78837 13.4088 8.8922 13.4929 9.00165C13.7159 9.2915 14.088 9.41743 14.4404 9.32329L14.6681 9.26235C14.6681 9.26235 14.6681 9.26228 14.6682 9.26228C15.0313 9.16525 15.4141 9.36126 15.522 9.69946C15.579 9.87845 15.5612 10.0672 15.4716 10.2311Z" fill="white"/>
<path d="M32.4952 34.9464C33.1235 34.9464 33.7518 34.7073 34.2301 34.2291H34.2302C35.1867 33.2725 35.1867 31.716 34.2301 30.7593C33.2735 29.8029 31.7171 29.8028 30.7604 30.7594C29.8038 31.716 29.8038 33.2725 30.7605 34.2291C31.2387 34.7073 31.867 34.9464 32.4952 34.9464ZM31.589 31.588C31.8389 31.3381 32.167 31.2132 32.4952 31.2132C32.8234 31.2132 33.1516 31.3381 33.4014 31.5879C33.9011 32.0877 33.9011 32.9007 33.4015 33.4004C32.9017 33.9 32.0887 33.9002 31.589 33.4004C31.0894 32.9007 31.0894 32.0877 31.589 31.588Z" fill="white"/>
</g>
<defs>
<clipPath id="clip0_251_2469">
<rect width="40" height="40" fill="white"/>
</clipPath>
</defs>
</svg>
