<svg width="40" height="40" viewBox="0 0 40 40" fill="none" xmlns="http://www.w3.org/2000/svg">
<g clip-path="url(#clip0_251_2483)">
<path d="M8.08297 36.9219C9.10227 36.9219 9.93156 36.0926 9.93156 35.0733C9.93156 34.0539 9.10227 33.2246 8.08297 33.2246C7.06367 33.2246 6.23438 34.0539 6.23438 35.0733C6.23438 36.0926 7.06367 36.9219 8.08297 36.9219ZM8.08297 34.3965C8.45609 34.3965 8.75977 34.7002 8.75977 35.0733C8.75977 35.4464 8.45617 35.75 8.08297 35.75C7.70984 35.75 7.40617 35.4464 7.40617 35.0733C7.40625 34.7002 7.70984 34.3965 8.08297 34.3965Z" fill="white"/>
<path d="M31.9161 36.9219C32.9354 36.9219 33.7647 36.0926 33.7647 35.0733C33.7647 34.0539 32.9354 33.2246 31.9161 33.2246C30.8967 33.2246 30.0674 34.0539 30.0674 35.0733C30.0674 36.0926 30.8967 36.9219 31.9161 36.9219ZM31.9161 34.3965C32.2892 34.3965 32.5929 34.7002 32.5929 35.0733C32.5929 35.4464 32.2892 35.75 31.9161 35.75C31.5429 35.75 31.2393 35.4464 31.2393 35.0733C31.2393 34.7002 31.5429 34.3965 31.9161 34.3965Z" fill="white"/>
<path d="M32.5579 24.4949C32.7567 24.2244 32.8157 23.8717 32.7155 23.5514L31.4331 19.4475C31.2941 19.0029 30.8878 18.7041 30.4219 18.7041H22.9647C22.3806 18.7041 21.9053 19.1794 21.9053 19.7636V23.8674C21.9053 24.4515 22.3806 24.9268 22.9647 24.9268H31.7043C32.04 24.9268 32.3591 24.7654 32.5579 24.4949ZM23.0771 23.7549V19.876H30.3392L31.5514 23.7549H23.0771Z" fill="white"/>
<path d="M20.5523 23.8673V19.7636C20.5523 19.1794 20.0771 18.7041 19.4929 18.7041H12.5294C12.1003 18.7041 11.7164 18.96 11.5514 19.3561L9.84155 23.4599C9.70499 23.7875 9.741 24.1596 9.93795 24.455C10.1349 24.7504 10.4644 24.9268 10.8195 24.9268H19.4929C20.077 24.9267 20.5523 24.4514 20.5523 23.8673ZM19.3805 23.7548H10.9881L12.6043 19.8759H19.3805V23.7548Z" fill="white"/>
<path d="M16.7646 26.2012C16.4411 26.2012 16.1787 26.4634 16.1787 26.7871C16.1787 27.1108 16.4411 27.373 16.7646 27.373H18.343C18.6666 27.373 18.9289 27.1108 18.9289 26.7871C18.9289 26.4634 18.6666 26.2012 18.343 26.2012H16.7646Z" fill="white"/>
<path d="M28.9961 26.2012C28.6724 26.2012 28.4102 26.4634 28.4102 26.7871C28.4102 27.1108 28.6724 27.373 28.9961 27.373H30.5745C30.8981 27.373 31.1604 27.1108 31.1604 26.7871C31.1604 26.4634 30.8981 26.2012 30.5745 26.2012H28.9961Z" fill="white"/>
<path d="M33.5284 5.0057V3.69766H38.9399C39.5245 3.69766 40 3.22203 40 2.6375V1.05938C40 0.475234 39.5245 0 38.9399 0H32.6509C32.3273 0 32.065 0.262266 32.065 0.585938C32.065 0.909609 32.3273 1.17188 32.6509 1.17188H38.8281V2.52578H1.17219V1.17188H29.9165C30.2402 1.17188 30.5024 0.909609 30.5024 0.585938C30.5024 0.262266 30.2402 0 29.9165 0H1.05969C0.475547 0 0.0003125 0.475234 0.0003125 1.0593V2.63742C0.0003125 3.22195 0.475547 3.69758 1.05969 3.69758H3.94594V5.05109H2.1643C1.40609 5.05109 0.789219 5.66797 0.789219 6.42617L0.789453 33.2611C0.335859 33.381 0 33.7937 0 34.2844V35.8627C0 36.4469 0.475234 36.9221 1.05945 36.9221H3.51797C4.2507 38.725 6.02039 40 8.08313 40C10.1461 40 11.9159 38.7248 12.6484 36.9219H15.1556C15.4792 36.9219 15.7416 36.6596 15.7416 36.3359C15.7416 36.0123 15.4792 35.75 15.1556 35.75H12.962C12.9925 35.5288 13.0095 35.3031 13.0095 35.0736C13.0095 34.8439 12.9925 34.6182 12.9619 34.3968H27.0376C27.007 34.6182 26.9899 34.8439 26.9899 35.0736C26.9899 35.3031 27.007 35.5288 27.0375 35.75H17.8898C17.5662 35.75 17.3039 36.0123 17.3039 36.3359C17.3039 36.6596 17.5662 36.9219 17.8898 36.9219H27.351C28.0837 38.7248 29.8534 40 31.9163 40C33.9791 40 35.7488 38.725 36.4815 36.9222H38.94C39.5241 36.9222 39.9995 36.447 39.9995 35.8628V34.2844C39.9995 33.7937 39.6636 33.3809 39.21 33.2611V25.9188C39.21 24.7255 38.2392 23.7548 37.0459 23.7548H35.4125L33.3104 17.6391C33.0095 16.7653 32.1869 16.1783 31.2634 16.1783H28.529C28.2053 16.1783 27.943 16.4405 27.943 16.7642C27.943 17.0879 28.2053 17.3502 28.529 17.3502H31.2634C31.687 17.3502 32.0643 17.6195 32.2022 18.0202L34.3302 24.2111C34.4769 24.639 34.8795 24.9266 35.332 24.9266H37.0461C37.5932 24.9266 38.0383 25.3716 38.0383 25.9188V26.9903H36.6605C36.0278 26.9903 35.5132 27.5051 35.5132 28.1377V29.5401C35.5132 30.1728 36.0279 30.6875 36.6605 30.6875H38.0383V33.2248H36.4816C35.7489 31.422 33.9793 30.147 31.9165 30.147C29.8537 30.147 28.0841 31.422 27.3513 33.2248H21.8475V26.787C21.8475 26.4633 21.5852 26.201 21.2616 26.201C20.9379 26.201 20.6756 26.4633 20.6756 26.787V33.2248H12.6484C11.9156 31.422 10.146 30.147 8.08313 30.147C6.02031 30.147 4.2507 31.422 3.51797 33.2248H1.96125V30.6875H3.33898C3.97172 30.6875 4.48641 30.1727 4.48641 29.5401V28.1377C4.48641 27.505 3.97172 26.9903 3.33898 26.9903H1.97258C2.03 26.6022 2.31297 26.2779 2.70102 26.176L7.30547 24.9644C7.61422 24.8832 7.86711 24.6699 7.99859 24.3809L10.9553 17.9299C11.1173 17.5776 11.4716 17.35 11.8581 17.35H25.7947C26.1184 17.35 26.3806 17.0877 26.3806 16.7641C26.3806 16.4404 26.1184 16.1781 25.7947 16.1781H11.858C11.0153 16.1781 10.243 16.6736 9.89023 17.441L8.27445 20.9663V6.42625C8.27445 5.66805 7.65758 5.05117 6.89937 5.05117H5.11781V3.69766H9.62805V5.00578C9.62805 5.67703 10.1741 6.22305 10.8453 6.22305H10.9025C10.9568 6.49055 11.1932 6.6918 11.4766 6.6918C11.7601 6.6918 11.9965 6.49055 12.0508 6.22305H12.108C12.7791 6.22305 13.3252 5.67703 13.3252 5.00578V3.69766H14.6788V5.00578C14.6788 5.67703 15.2248 6.22305 15.896 6.22305H15.9532C16.0075 6.49055 16.2439 6.6918 16.5273 6.6918C16.8108 6.6918 17.0472 6.49055 17.1015 6.22305H17.1587C17.8298 6.22305 18.3759 5.67703 18.3759 5.00578V3.69766H19.7295V5.00578C19.7295 5.67703 20.2755 6.22305 20.9467 6.22305H21.004C21.0583 6.49055 21.2947 6.6918 21.5781 6.6918C21.8616 6.6918 22.098 6.49055 22.1523 6.22305H22.2095C22.8807 6.22305 23.4267 5.67703 23.4267 5.00578V3.69766H24.7802V5.00578C24.7802 5.67703 25.3263 6.22305 25.9976 6.22305H26.0548C26.1091 6.49055 26.3455 6.6918 26.6289 6.6918C26.9123 6.6918 27.1488 6.49055 27.203 6.22305H27.2602C27.9315 6.22305 28.4775 5.67703 28.4775 5.00578V3.69766H29.831V5.00578C29.831 5.67703 30.3771 6.22305 31.0484 6.22305H31.1055C31.1598 6.49055 31.3962 6.6918 31.6797 6.6918C31.9631 6.6918 32.1995 6.49055 32.2538 6.22305H32.311C32.9823 6.22297 33.5284 5.67695 33.5284 5.0057ZM36.6852 29.5158V28.1623H38.0384V29.5158H36.6852ZM38.8278 34.3968V35.7503H36.7953C36.8259 35.5289 36.843 35.3033 36.843 35.0736C36.843 34.8439 36.8259 34.6182 36.7953 34.3968H38.8278ZM31.9165 31.319C33.9868 31.319 35.671 33.0033 35.671 35.0736C35.671 37.1439 33.9868 38.8281 31.9165 38.8281C29.8462 38.8281 28.162 37.1439 28.162 35.0736C28.162 33.0033 29.8462 31.319 31.9165 31.319ZM1.96102 16.0155L7.10258 17.3009V19.2497L1.96102 17.9643V16.0155ZM7.10266 16.093L1.96109 14.8076V12.8587L7.10266 14.1441V16.093ZM1.96102 19.1723L7.10258 20.4577V22.4064L1.96102 21.121V19.1723ZM7.10266 12.9362L1.96109 11.6509V9.70211L7.10266 10.9875V12.9362ZM8.08313 31.319C10.1534 31.319 11.8377 33.0033 11.8377 35.0736C11.8377 37.1439 10.1534 38.8281 8.08313 38.8281C6.01289 38.8281 4.32859 37.1439 4.32859 35.0736C4.32859 33.0033 6.01289 31.319 8.08313 31.319ZM3.20437 35.7503H1.17188V34.3968H3.20437C3.17383 34.6182 3.15672 34.8439 3.15672 35.0736C3.15672 35.3033 3.17383 35.5289 3.20437 35.7503ZM3.31453 29.5158H1.96125V28.1623H3.31453V29.5158ZM2.40313 25.0427C2.24719 25.0837 2.09984 25.1425 1.96102 25.2142V22.329L7.06516 23.605L6.95523 23.8449L2.40313 25.0427ZM7.10266 6.42625V9.77953L1.96109 8.49414V6.42625C1.96109 6.31414 2.05227 6.22297 2.16438 6.22297H6.89945C7.01148 6.22297 7.10266 6.31414 7.10266 6.42625ZM12.1534 5.0057C12.1534 5.0307 12.133 5.05109 12.108 5.05109H10.8453C10.8202 5.05109 10.7998 5.0307 10.7998 5.0057V3.69766H12.1534L12.1534 5.0057ZM17.2041 5.0057C17.2041 5.0307 17.1838 5.05109 17.1588 5.05109H15.8961C15.871 5.05109 15.8506 5.0307 15.8506 5.0057V3.69766H17.2041V5.0057ZM22.2549 5.0057C22.2549 5.0307 22.2345 5.05109 22.2095 5.05109H20.9468C20.9218 5.05109 20.9014 5.0307 20.9014 5.0057V3.69766H22.2549V5.0057ZM27.3057 5.0057C27.3057 5.0307 27.2853 5.05109 27.2603 5.05109H25.9977C25.9726 5.05109 25.9522 5.0307 25.9522 5.0057V3.69766H27.3057V5.0057ZM31.003 5.0057V3.69766H32.3565V5.00578C32.3565 5.03078 32.3361 5.05117 32.3111 5.05117H31.0484C31.0234 5.05109 31.003 5.0307 31.003 5.0057Z" fill="white"/>
<path d="M12.0625 8.14941C12.0625 7.82574 11.8002 7.56348 11.4766 7.56348C11.153 7.56348 10.8906 7.82574 10.8906 8.14941V8.91582C10.8906 9.23949 11.153 9.50176 11.4766 9.50176C11.8002 9.50176 12.0625 9.23949 12.0625 8.91582V8.14941Z" fill="white"/>
<path d="M12.0625 10.96C12.0625 10.6363 11.8002 10.374 11.4766 10.374C11.153 10.374 10.8906 10.6363 10.8906 10.96V11.7264C10.8906 12.05 11.153 12.3123 11.4766 12.3123C11.8002 12.3123 12.0625 12.05 12.0625 11.7264V10.96Z" fill="white"/>
<path d="M11.4766 13.1846C11.153 13.1846 10.8906 13.4468 10.8906 13.7705V14.2393C10.8906 14.5629 11.153 14.8252 11.4766 14.8252C11.8002 14.8252 12.0625 14.5629 12.0625 14.2393V13.7705C12.0625 13.4468 11.8002 13.1846 11.4766 13.1846Z" fill="white"/>
<path d="M17.1133 8.66797C17.1133 8.3443 16.8509 8.08203 16.5273 8.08203C16.2037 8.08203 15.9414 8.3443 15.9414 8.66797V9.62898C15.9414 9.95266 16.2037 10.2149 16.5273 10.2149C16.8509 10.2149 17.1133 9.95266 17.1133 9.62898V8.66797Z" fill="white"/>
<path d="M16.5273 11.6064C16.2037 11.6064 15.9414 11.8687 15.9414 12.1924V12.6611C15.9414 12.9848 16.2037 13.2471 16.5273 13.2471C16.8509 13.2471 17.1133 12.9848 17.1133 12.6611V12.1924C17.1133 11.8687 16.8509 11.6064 16.5273 11.6064Z" fill="white"/>
<path d="M22.1641 8.14941C22.1641 7.82574 21.9018 7.56348 21.5781 7.56348C21.2545 7.56348 20.9922 7.82574 20.9922 8.14941V8.91582C20.9922 9.23949 21.2545 9.50176 21.5781 9.50176C21.9018 9.50176 22.1641 9.23949 22.1641 8.91582V8.14941Z" fill="white"/>
<path d="M22.1641 10.96C22.1641 10.6363 21.9018 10.374 21.5781 10.374C21.2545 10.374 20.9922 10.6363 20.9922 10.96V11.7264C20.9922 12.05 21.2545 12.3123 21.5781 12.3123C21.9018 12.3123 22.1641 12.05 22.1641 11.7264V10.96Z" fill="white"/>
<path d="M21.5781 13.1846C21.2545 13.1846 20.9922 13.4468 20.9922 13.7705V14.2393C20.9922 14.5629 21.2545 14.8252 21.5781 14.8252C21.9018 14.8252 22.1641 14.5629 22.1641 14.2393V13.7705C22.1641 13.4468 21.9018 13.1846 21.5781 13.1846Z" fill="white"/>
<path d="M26.6289 10.2149C26.9526 10.2149 27.2148 9.95266 27.2148 9.62898V8.66797C27.2148 8.3443 26.9526 8.08203 26.6289 8.08203C26.3052 8.08203 26.043 8.3443 26.043 8.66797V9.62898C26.043 9.95266 26.3053 10.2149 26.6289 10.2149Z" fill="white"/>
<path d="M26.043 12.6611C26.043 12.9848 26.3052 13.2471 26.6289 13.2471C26.9526 13.2471 27.2148 12.9848 27.2148 12.6611V12.1924C27.2148 11.8687 26.9526 11.6064 26.6289 11.6064C26.3052 11.6064 26.043 11.8687 26.043 12.1924V12.6611Z" fill="white"/>
<path d="M32.2656 10.96C32.2656 10.6363 32.0034 10.374 31.6797 10.374C31.356 10.374 31.0938 10.6363 31.0938 10.96V11.7264C31.0938 12.05 31.356 12.3123 31.6797 12.3123C32.0034 12.3123 32.2656 12.05 32.2656 11.7264V10.96Z" fill="white"/>
<path d="M32.2656 8.14941C32.2656 7.82574 32.0034 7.56348 31.6797 7.56348C31.356 7.56348 31.0938 7.82574 31.0938 8.14941V8.91582C31.0938 9.23949 31.356 9.50176 31.6797 9.50176C32.0034 9.50176 32.2656 9.23949 32.2656 8.91582V8.14941Z" fill="white"/>
<path d="M31.6797 13.1846C31.356 13.1846 31.0938 13.4468 31.0938 13.7705V14.2393C31.0938 14.5629 31.356 14.8252 31.6797 14.8252C32.0034 14.8252 32.2656 14.5629 32.2656 14.2393V13.7705C32.2656 13.4468 32.0033 13.1846 31.6797 13.1846Z" fill="white"/>
</g>
<defs>
<clipPath id="clip0_251_2483">
<rect width="40" height="40" fill="white"/>
</clipPath>
</defs>
</svg>
