<svg width="301" height="216" viewBox="0 0 301 216" fill="none" xmlns="http://www.w3.org/2000/svg">
<mask id="path-1-inside-1_4_1503" fill="white">
<path d="M64.7262 0.533632C100.297 0.533632 129.155 29.3926 129.155 64.9629V129.392C129.155 177.043 90.2294 215.298 43.2497 215.298C31.1692 215.298 21.7733 205.902 21.7733 193.822C21.7733 182.412 31.1692 172.345 43.2497 172.345C66.7396 172.345 86.2026 153.553 86.2026 129.392V126.037C78.8201 128.05 72.1087 129.392 64.7262 129.392C28.4847 129.392 0.296875 101.204 0.296875 64.9629C0.296875 29.3926 28.4847 0.533632 64.7262 0.533632ZM300.967 64.9629V129.392C300.967 177.043 262.041 215.298 215.061 215.298C202.981 215.298 193.585 205.902 193.585 193.822C193.585 182.412 202.981 172.345 215.061 172.345C238.551 172.345 258.014 153.553 258.014 129.392V126.037C250.632 128.05 243.92 129.392 236.538 129.392C200.296 129.392 172.108 101.204 172.108 64.9629C172.108 29.3926 200.296 0.533632 236.538 0.533632C272.108 0.533632 300.967 29.3926 300.967 64.9629Z"/>
</mask>
<path d="M86.2026 126.037H87.5623V124.256L85.8449 124.725L86.2026 126.037ZM258.014 126.037H259.374V124.256L257.656 124.725L258.014 126.037ZM64.7262 1.89327C99.5456 1.89327 127.796 30.1435 127.796 64.9629H130.515C130.515 28.6417 101.047 -0.826008 64.7262 -0.826008V1.89327ZM127.796 64.9629V129.392H130.515V64.9629H127.796ZM127.796 129.392C127.796 176.285 89.4855 213.938 43.2497 213.938V216.658C90.9734 216.658 130.515 177.801 130.515 129.392H127.796ZM43.2497 213.938C31.9202 213.938 23.1329 205.151 23.1329 193.822H20.4137C20.4137 206.653 30.4183 216.658 43.2497 216.658V213.938ZM23.1329 193.822C23.1329 183.135 31.9476 173.705 43.2497 173.705V170.985C30.3909 170.985 20.4137 181.689 20.4137 193.822H23.1329ZM43.2497 173.705C67.4766 173.705 87.5623 154.318 87.5623 129.392H84.843C84.843 152.788 66.0026 170.985 43.2497 170.985V173.705ZM87.5623 129.392V126.037H84.843V129.392H87.5623ZM85.8449 124.725C78.5157 126.724 71.9363 128.033 64.7262 128.033V130.752C72.2811 130.752 79.1245 129.376 86.5604 127.348L85.8449 124.725ZM64.7262 128.033C29.2356 128.033 1.65651 100.454 1.65651 64.9629H-1.06276C-1.06276 101.955 27.7338 130.752 64.7262 130.752V128.033ZM1.65651 64.9629C1.65651 30.1342 29.2448 1.89327 64.7262 1.89327V-0.826008C27.7245 -0.826008 -1.06276 28.651 -1.06276 64.9629H1.65651ZM299.607 64.9629V129.392H302.327V64.9629H299.607ZM299.607 129.392C299.607 176.285 261.297 213.938 215.061 213.938V216.658C262.785 216.658 302.327 177.801 302.327 129.392H299.607ZM215.061 213.938C203.732 213.938 194.944 205.151 194.944 193.822H192.225C192.225 206.653 202.23 216.658 215.061 216.658V213.938ZM194.944 193.822C194.944 183.135 203.759 173.705 215.061 173.705V170.985C202.202 170.985 192.225 181.689 192.225 193.822H194.944ZM215.061 173.705C239.288 173.705 259.374 154.318 259.374 129.392H256.654C256.654 152.788 237.814 170.985 215.061 170.985V173.705ZM259.374 129.392V126.037H256.654V129.392H259.374ZM257.656 124.725C250.327 126.724 243.748 128.033 236.538 128.033V130.752C244.093 130.752 250.936 129.376 258.372 127.348L257.656 124.725ZM236.538 128.033C201.047 128.033 173.468 100.454 173.468 64.9629H170.749C170.749 101.955 199.545 130.752 236.538 130.752V128.033ZM173.468 64.9629C173.468 30.1342 201.056 1.89327 236.538 1.89327V-0.826008C199.536 -0.826008 170.749 28.651 170.749 64.9629H173.468ZM236.538 1.89327C271.357 1.89327 299.607 30.1435 299.607 64.9629H302.327C302.327 28.6417 272.859 -0.826008 236.538 -0.826008V1.89327Z" fill="#E8092E" mask="url(#path-1-inside-1_4_1503)"/>
</svg>
