<svg width="40" height="40" viewBox="0 0 40 40" fill="none" xmlns="http://www.w3.org/2000/svg">
<g clip-path="url(#clip0_251_2436)">
<path d="M14.5793 33.4451C12.7207 32.6964 11.0228 31.5574 9.58324 30.0678C9.35832 29.8352 8.98738 29.8288 8.75473 30.0536C8.52199 30.2785 8.51566 30.6495 8.74051 30.8821C11.7176 33.9628 15.7164 35.6593 20.0002 35.6593C28.6348 35.6593 35.6596 28.6346 35.6596 20C35.6596 11.3653 28.6348 4.34058 20.0002 4.34058C11.3656 4.34058 4.34082 11.3653 4.34082 20C4.34082 23.1018 5.2466 26.101 6.96027 28.6733C7.13965 28.9426 7.50332 29.0153 7.7727 28.8361C8.04199 28.6567 8.11488 28.2929 7.93543 28.0236C6.35043 25.6444 5.5127 22.8698 5.5127 20C5.5127 19.3181 5.56113 18.6475 5.6527 17.9904C6.78488 17.8371 7.9509 18.0257 8.97699 18.5357L13.6304 20.8503C13.6685 21.1378 13.7258 21.4219 13.8023 21.7005C13.8881 22.0125 14.2103 22.1962 14.5225 22.1103C14.8346 22.0246 15.0181 21.7021 14.9324 21.3901C14.8089 20.9404 14.7462 20.4728 14.7462 20C14.7462 17.1029 17.1031 14.746 20.0001 14.746C22.8972 14.746 25.254 17.1029 25.254 20C25.254 22.897 22.8972 25.2539 20.0001 25.2539C18.5237 25.2539 17.107 24.6272 16.1133 23.5346C15.8956 23.2952 15.525 23.2777 15.2856 23.4953C15.0462 23.7131 15.0286 24.0837 15.2463 24.3231C15.5075 24.6103 15.7928 24.871 16.0974 25.1036L15.7755 30.2853C15.7042 31.4326 15.282 32.54 14.5793 33.4451ZM15.5849 15.338L10.7375 12.5394C10.4571 12.3777 10.0989 12.4735 9.93715 12.7539C9.77535 13.0341 9.87137 13.3925 10.1516 13.5542L14.7968 16.2361C14.5326 16.6004 14.3058 16.9932 14.1218 17.4093L9.47488 14.7264C9.19441 14.5647 8.83621 14.6606 8.67449 14.9409C8.5127 15.2211 8.60871 15.5795 8.88895 15.7413L13.7429 18.5437C13.6689 18.8619 13.6187 19.189 13.594 19.5232L9.49887 17.4863C8.37668 16.9284 7.11551 16.6888 5.87223 16.7876C6.52699 13.9064 8.04316 11.3493 10.1343 9.40136C10.6703 10.5284 11.5089 11.5017 12.5539 12.195L16.3521 14.7142C16.0804 14.9025 15.8242 15.1113 15.5849 15.338ZM17.5104 14.0764L13.2017 11.2185C12.2443 10.5833 11.4967 9.66456 11.064 8.60417C13.5274 6.66831 16.6314 5.51245 20.0002 5.51245C23.3596 5.51245 26.4553 6.66206 28.9154 8.58808C28.4829 9.64987 27.7347 10.5698 26.7764 11.2057L22.4637 14.066C21.7046 13.7497 20.8725 13.5742 20.0001 13.5742C19.1179 13.5742 18.2765 13.7532 17.5104 14.0764ZM23.6282 14.7L27.4243 12.1821C28.471 11.4877 29.3105 10.5123 29.8463 9.383C31.945 11.3307 33.4677 13.8909 34.1259 16.7767C32.8762 16.6737 31.6074 16.9126 30.4793 17.4735L26.4047 19.5003C26.3789 19.166 26.3275 18.8391 26.2523 18.521L31.0892 15.7285C31.3694 15.5667 31.4654 15.2084 31.3036 14.9282C31.1419 14.6479 30.7833 14.552 30.5032 14.7137L25.8694 17.389C25.6839 16.9737 25.4561 16.5814 25.1906 16.2181L29.8264 13.5416C30.1067 13.3798 30.2027 13.0214 30.0409 12.7412C29.8792 12.4609 29.5207 12.3651 29.2405 12.5267L24.3986 15.3219C24.1582 15.0957 23.9011 14.8874 23.6282 14.7ZM26.3711 20.8257L31.001 18.5228C32.0335 18.0094 33.2078 17.822 34.3464 17.9805C34.4389 18.6407 34.4878 19.3147 34.4878 20C34.4878 26.075 30.7286 31.2879 25.4147 33.437C24.7158 32.5334 24.2961 31.4293 24.2248 30.2855L23.9027 25.1002C25.2286 24.0831 26.1472 22.5621 26.3711 20.8257ZM18.1515 26.1526V31.7589C18.1515 32.0825 18.4138 32.3448 18.7375 32.3448C19.0611 32.3448 19.3234 32.0825 19.3234 31.7589V26.3896C19.5472 26.4135 19.7732 26.4257 20.0002 26.4257C20.2288 26.4257 20.4545 26.4132 20.677 26.3898V31.7589C20.677 32.0825 20.9393 32.3448 21.2629 32.3448C21.5866 32.3448 21.8489 32.0825 21.8489 31.7589V26.1534C22.1675 26.0575 22.4761 25.9384 22.7718 25.7964L23.0552 30.3581C23.1331 31.6085 23.5559 32.8202 24.2627 33.8471C22.9145 34.263 21.4831 34.4874 20.0002 34.4874C18.5299 34.4874 17.0961 34.2709 15.7332 33.8535C16.4427 32.8252 16.8672 31.611 16.9453 30.3579L17.2287 25.7953C17.5264 25.9379 17.835 26.0573 18.1515 26.1526Z" fill="#E8092E"/>
<path d="M20.0002 23.9005C22.1509 23.9005 23.9007 22.1507 23.9007 19.9999C23.9007 17.8491 22.1509 16.0994 20.0002 16.0994C17.8495 16.0994 16.0996 17.8492 16.0996 19.9999C16.0996 22.1506 17.8495 23.9005 20.0002 23.9005ZM20.0002 17.2712C21.5048 17.2712 22.7288 18.4953 22.7288 19.9999C22.7288 21.5045 21.5048 22.7286 20.0002 22.7286C18.4955 22.7286 17.2715 21.5045 17.2715 19.9999C17.2715 18.4953 18.4955 17.2712 20.0002 17.2712Z" fill="#E8092E"/>
<path d="M37.7686 10.8111C36.3563 8.08539 34.2982 5.68266 31.8169 3.86273C31.5562 3.67141 31.1894 3.72766 30.9979 3.98867C30.8066 4.24961 30.8629 4.61625 31.1238 4.80766C33.4603 6.52156 35.3983 8.78391 36.728 11.3502C38.1216 14.0395 38.8281 16.9496 38.8281 20C38.8281 25.0291 36.8697 29.7573 33.3134 33.3134C29.7572 36.8696 25.0291 38.8281 20 38.8281C14.9709 38.8281 10.2427 36.8697 6.68656 33.3134C3.13039 29.7572 1.17188 25.0291 1.17188 20C1.17188 14.9709 3.13031 10.2427 6.68656 6.68656C10.2428 3.13039 14.9709 1.17188 20 1.17188C23.098 1.17188 26.1687 1.94016 28.8802 3.39375C29.1655 3.54672 29.5205 3.4393 29.6734 3.15422C29.8263 2.86898 29.7191 2.51383 29.4339 2.36094C26.5527 0.816406 23.2905 0 20 0C14.6579 0 9.63547 2.08039 5.85789 5.85789C2.08031 9.63539 0 14.6579 0 20C0 25.3421 2.08039 30.3645 5.85789 34.1421C9.63539 37.9197 14.6579 40 20 40C25.3421 40 30.3645 37.9196 34.1421 34.1421C37.9197 30.3646 40 25.3421 40 20C40 16.8058 39.2284 13.6283 37.7686 10.8111Z" fill="#E8092E"/>
</g>
<defs>
<clipPath id="clip0_251_2436">
<rect width="40" height="40" fill="white"/>
</clipPath>
</defs>
</svg>
