<svg width="40" height="40" viewBox="0 0 40 40" fill="none" xmlns="http://www.w3.org/2000/svg">
<path d="M33.9874 14.0391C33.6637 14.0391 33.4014 14.3014 33.4014 14.625V38.3094C33.4014 38.5955 33.1687 38.8281 32.8827 38.8281H8.26004C7.97395 38.8281 7.74121 38.5954 7.74121 38.3094V32.2836C7.74121 31.96 7.47895 31.6977 7.15527 31.6977C6.8316 31.6977 6.56934 31.96 6.56934 32.2836V38.3094C6.56934 39.2416 7.32777 40 8.26004 40H32.8827C33.815 40 34.5733 39.2416 34.5733 38.3094V14.625C34.5733 14.3014 34.3111 14.0391 33.9874 14.0391Z" fill="#E8092E"/>
<path d="M33.1984 0H21.5406C20.9628 0 20.4195 0.225156 20.0106 0.634063L15.751 4.89297H14.0843C13.6392 4.89297 13.2034 5.07344 12.8887 5.38805L12.5136 5.76312L11.7999 5.04945C11.5402 4.78969 11.1949 4.64664 10.8276 4.64664C10.5482 4.64664 10.2818 4.72984 10.0559 4.88375L9.32461 4.15242C9.06492 3.89273 8.71961 3.74969 8.35227 3.74969C7.98492 3.74969 7.63961 3.89273 7.37992 4.15242L5.82859 5.70367C5.56883 5.96344 5.42578 6.30875 5.42578 6.67602C5.42578 7.04336 5.56883 7.38867 5.82852 7.64836L6.56016 8.38C6.19742 8.91477 6.25203 9.65008 6.72547 10.1237L7.43922 10.8374L7.06445 11.2122C6.74984 11.5268 6.56938 11.9626 6.56938 12.4077V29.5491C6.56938 29.8727 6.83164 30.1351 7.15531 30.1351C7.47898 30.1351 7.74125 29.8727 7.74125 29.5491V12.4078C7.74125 12.2711 7.79664 12.1374 7.89313 12.0409L13.7173 6.21672C13.8138 6.12023 13.9476 6.06484 14.0842 6.06484H15.9936C16.149 6.06484 16.298 6.00312 16.4079 5.89328L20.8392 1.46281C21.0267 1.27523 21.2759 1.17195 21.5406 1.17195H33.1984C33.3104 1.17195 33.4015 1.26312 33.4015 1.37508V11.8907C33.4015 12.2143 33.6638 12.4766 33.9874 12.4766C34.3111 12.4766 34.5734 12.2143 34.5734 11.8907V1.375C34.5733 0.616875 33.9565 0 33.1984 0ZM6.65719 6.53234L8.20844 4.98102C8.26016 4.92922 8.3207 4.92148 8.35211 4.92148C8.38352 4.92148 8.44414 4.92922 8.49586 4.98102L9.20961 5.69484L7.37094 7.53352L6.65711 6.81969C6.60531 6.76789 6.59758 6.70742 6.59758 6.67602C6.59766 6.64461 6.60531 6.58414 6.65719 6.53234ZM7.55414 9.29516C7.47484 9.21586 7.47484 9.08687 7.55414 9.00766L10.6839 5.87797C10.7357 5.82617 10.7962 5.81844 10.8276 5.81844C10.859 5.81844 10.9195 5.82617 10.9713 5.87797L11.6851 6.59172L8.26789 10.0089L7.55414 9.29516Z" fill="#E8092E"/>
<path d="M20.5446 6.06484H30.989C31.5733 6.06484 32.0485 5.58961 32.0485 5.00539V3.58484C32.0485 3.00063 31.5733 2.52539 30.989 2.52539H22.6078C22.1562 2.52539 21.7316 2.70125 21.4122 3.02063L19.9071 4.5257C19.6483 4.78445 19.5716 5.17016 19.7116 5.5082C19.8517 5.84633 20.1787 6.06484 20.5446 6.06484ZM22.2408 3.8493C22.3388 3.75125 22.4691 3.69727 22.6077 3.69727H30.8765V4.89297H21.1972L22.2408 3.8493Z" fill="#E8092E"/>
<path d="M9.72559 14.8362V34.6789C9.72559 35.8723 10.6965 36.8432 11.8899 36.8432H29.252C30.4454 36.8432 31.4163 35.8723 31.4163 34.6789V14.8362C31.4163 13.6428 30.4454 12.6719 29.252 12.6719H11.8899C10.6964 12.6719 9.72559 13.6428 9.72559 14.8362ZM30.2444 14.8362V34.6789C30.2444 35.2261 29.7993 35.6713 29.252 35.6713H11.8899C11.3426 35.6713 10.8975 35.2261 10.8975 34.6789V14.8362C10.8975 14.289 11.3426 13.8438 11.8899 13.8438H29.252C29.7993 13.8438 30.2444 14.289 30.2444 14.8362Z" fill="#E8092E"/>
<path d="M14.4609 21.4845V28.0296L13.2598 29.2313C12.4776 30.0135 12.4776 31.2863 13.2598 32.0685C13.6385 32.4472 14.1421 32.6558 14.678 32.6558C15.2144 32.6558 15.7183 32.4473 16.0969 32.0687L17.2988 30.8675H23.8439L25.0449 32.0686C25.8274 32.8509 27.1005 32.8509 27.883 32.0685C28.2616 31.6898 28.4702 31.1859 28.4702 30.6495C28.4702 30.1137 28.2616 29.61 27.883 29.2313L26.6811 28.0295V26.1246C26.6811 25.801 26.4188 25.5387 26.0952 25.5387C25.7715 25.5387 25.5092 25.801 25.5092 26.1246V28.2723C25.5092 28.4277 25.5709 28.5767 25.6808 28.6866L27.0542 30.06C27.2116 30.2173 27.2982 30.4267 27.2982 30.6495C27.2982 30.8729 27.2116 31.0826 27.0543 31.2399C26.7288 31.5655 26.1991 31.5655 25.8735 31.2399L24.5009 29.8673C24.391 29.7573 24.242 29.6956 24.0866 29.6956H17.0561C16.9008 29.6956 16.7517 29.7573 16.6419 29.8671L15.2683 31.2399C15.1109 31.3973 14.9013 31.4839 14.6779 31.4839C14.455 31.4839 14.2457 31.3973 14.0884 31.2399C13.763 30.9146 13.763 30.3853 14.0884 30.0598L15.4611 28.6864C15.5709 28.5766 15.6326 28.4276 15.6326 28.2722V21.2418C15.6326 21.0864 15.5709 20.9373 15.4609 20.8275L14.0884 19.4549C13.9305 19.297 13.8435 19.0873 13.8435 18.8645C13.8435 18.6416 13.9305 18.432 14.0884 18.2741C14.2459 18.1165 14.4555 18.0298 14.6784 18.0298C14.9013 18.0298 15.1107 18.1166 15.2683 18.2741L16.6417 19.6476C16.7516 19.7575 16.9006 19.8192 17.0561 19.8192H24.0866C24.242 19.8192 24.3911 19.7574 24.501 19.6475L25.8734 18.2742C26.0313 18.1163 26.241 18.0294 26.4639 18.0294C26.6868 18.0294 26.8964 18.1163 27.0543 18.2741C27.3798 18.5997 27.3798 19.1294 27.0545 19.4548L25.681 20.8274C25.5711 20.9373 25.5093 21.0864 25.5093 21.2419V23.3903C25.5093 23.7139 25.7716 23.9763 26.0952 23.9763C26.4189 23.9763 26.6812 23.7139 26.6812 23.3903V21.4847L27.883 20.2835C28.6655 19.5011 28.6655 18.2279 27.883 17.4454C27.5038 17.0663 26.9998 16.8574 26.464 16.8574C25.9282 16.8574 25.4242 17.0662 25.0448 17.4455L23.8438 18.6473H17.2989L16.0971 17.4455C15.7181 17.0665 15.2144 16.8578 14.6785 16.8578C14.1426 16.8578 13.6388 17.0665 13.2598 17.4455C12.8806 17.8247 12.6719 18.3287 12.6719 18.8645C12.6719 19.4002 12.8807 19.9042 13.2599 20.2834L14.4609 21.4845Z" fill="#E8092E"/>
</svg>
