<svg width="40" height="40" viewBox="0 0 40 40" fill="none" xmlns="http://www.w3.org/2000/svg">
<g clip-path="url(#clip0_251_2366)">
<path d="M8.08304 20.7442C9.10234 20.7442 9.93163 19.9149 9.93163 18.8955C9.93163 17.8762 9.10234 17.0469 8.08304 17.0469C7.06367 17.0469 6.23438 17.8762 6.23438 18.8955C6.23438 19.9149 7.06367 20.7442 8.08304 20.7442ZM8.08304 18.2187C8.45617 18.2187 8.75976 18.5223 8.75976 18.8955C8.75976 19.2687 8.45617 19.5723 8.08304 19.5723C7.70992 19.5723 7.40625 19.2687 7.40625 18.8955C7.40625 18.5223 7.70984 18.2187 8.08304 18.2187Z" fill="#E8092E"/>
<path d="M36.482 20.7438H38.9406C39.5248 20.7438 40 20.2686 40 19.6843V18.1059C40 17.6153 39.6643 17.2027 39.2108 17.0827V9.74045C39.2108 8.54709 38.2398 7.57616 37.0465 7.57616H35.4127L33.3106 1.4607C33.0102 0.58703 32.1877 0 31.2638 0H11.8582C11.0144 0 10.2422 0.495624 9.89068 1.26258L6.95577 7.666L2.40273 8.8642C1.45273 9.1142 0.789217 9.9749 0.789217 10.9572V17.0827C0.335703 17.2026 0 17.6153 0 18.1059V19.6843C0 20.2686 0.475233 20.7438 1.05945 20.7438H3.51804C3.81984 21.4863 4.29734 22.1389 4.89913 22.65H1.05937C0.475233 22.65 0 23.1252 0 23.7093V25.2875C0 25.8716 0.475233 26.3468 1.05937 26.3468H9.15459V26.7081C9.15459 27.9014 10.1255 28.8724 11.3189 28.8724H16.8886V36.3023H14.35C14.0263 36.3023 13.764 36.5646 13.764 36.8882C13.764 37.2118 14.0263 37.4741 14.35 37.4741H29.6281C29.6531 37.4741 29.6734 37.4949 29.6734 37.5202V38.7827C29.6734 38.8077 29.6531 38.8281 29.6281 38.8281H10.3719C10.3469 38.8281 10.3265 38.8077 10.3265 38.7827V37.5202C10.3265 37.4949 10.3469 37.4741 10.3719 37.4741H11.6156C11.9393 37.4741 12.2015 37.2118 12.2015 36.8882C12.2015 36.5646 11.9393 36.3023 11.6156 36.3023H10.3719C9.70068 36.3023 9.15467 36.8487 9.15467 37.5202V38.7827C9.15467 39.4539 9.70068 39.9999 10.3719 39.9999H29.6281C30.2992 39.9999 30.8453 39.4539 30.8453 38.7827V37.5202C30.8453 36.8487 30.2992 36.3023 29.6281 36.3023H23.1113V28.8724H28.681C29.8744 28.8724 30.8453 27.9014 30.8453 26.7081V26.3468H38.9406C39.5247 26.3468 39.9999 25.8716 39.9999 25.2875V23.7093C39.9999 23.1252 39.5247 22.65 38.9406 22.65H35.1008C35.7027 22.1389 36.1802 21.4863 36.482 20.7438ZM31.9167 22.6497C29.8463 22.6497 28.1621 20.9654 28.1621 18.8951C28.1621 16.8248 29.8463 15.1405 31.9167 15.1405C33.987 15.1405 35.6713 16.8248 35.6713 18.8951C35.6713 20.9654 33.987 22.6497 31.9167 22.6497ZM38.8281 19.5719H36.7956C36.8261 19.3505 36.8432 19.1248 36.8432 18.8951C36.8432 18.6654 36.8262 18.4397 36.7956 18.2183H38.8281V19.5719ZM38.0388 13.3372H36.6853V11.9837H38.0388V13.3372ZM2.70085 9.99748L7.30546 8.78576C7.6135 8.70467 7.86624 8.49209 7.99889 8.20264L10.9561 1.75078C11.1172 1.39914 11.4713 1.17187 11.8582 1.17187H31.2638C31.6874 1.17187 32.0646 1.44109 32.2024 1.84172L34.3306 8.03311C34.4777 8.46076 34.8803 8.74811 35.3325 8.74811H37.0464C37.5937 8.74811 38.0388 9.19334 38.0388 9.74053V10.8119H36.6609C36.0281 10.8119 35.5134 11.3266 35.5134 11.9594V13.3618C35.5134 13.9945 36.0281 14.5092 36.6609 14.5092H38.0388V17.0465H36.482C35.7492 15.2436 33.9795 13.9687 31.9167 13.9687C29.8537 13.9687 28.0839 15.2439 27.3513 17.0469H21.8477V10.6087C21.8477 10.2851 21.5854 10.0227 21.2618 10.0227C20.9381 10.0227 20.6758 10.2851 20.6758 10.6087V17.0469H18.7554C18.4318 17.0469 18.1695 17.3093 18.1695 17.6329C18.1695 17.9564 18.4318 18.2188 18.7554 18.2188H27.0378C27.0072 18.4401 26.9902 18.6656 26.9902 18.8952C26.9902 19.1249 27.0072 19.3506 27.0378 19.572H12.9621C12.9926 19.3506 13.0097 19.1249 13.0097 18.8952C13.0097 18.6657 12.9927 18.4401 12.9622 18.2188H16.0211C16.3448 18.2188 16.6071 17.9564 16.6071 17.6329C16.6071 17.3093 16.3448 17.0469 16.0211 17.0469H12.6486C11.916 15.2439 10.1462 13.9687 8.08327 13.9687C6.02038 13.9687 4.25069 15.2437 3.51796 17.0465H1.96109V14.5092H3.33906C3.97179 14.5092 4.48655 13.9945 4.48655 13.3618V11.9594C4.48655 11.3266 3.97179 10.8119 3.33906 10.8119H1.97242C2.02984 10.424 2.31296 10.0996 2.70085 9.99748ZM3.3146 11.9837V13.3372H1.96109V11.9837H3.3146ZM1.17187 19.5719V18.2184H3.20437C3.17382 18.4398 3.15671 18.6655 3.15671 18.8952C3.15671 19.1249 3.17374 19.3506 3.20437 19.572H1.17187V19.5719ZM4.32859 18.8951C4.32859 16.8248 6.01296 15.1405 8.08327 15.1405C10.1536 15.1405 11.8379 16.8248 11.8379 18.8951C11.8379 20.9654 10.1536 22.6497 8.08327 22.6497C6.01296 22.6497 4.32859 20.9654 4.32859 18.8951ZM21.9394 36.3023H18.0605V28.8724H21.9394V36.3023ZM38.8281 25.175H26.3132C25.9896 25.175 25.7273 25.4373 25.7273 25.7609C25.7273 26.0845 25.9896 26.3468 26.3132 26.3468H29.6735V26.7081C29.6735 27.2553 29.2284 27.7005 28.6811 27.7005H11.3189C10.7716 27.7005 10.3265 27.2553 10.3265 26.7081V26.3468H23.5789C23.9025 26.3468 24.1648 26.0845 24.1648 25.7609C24.1648 25.4373 23.9025 25.175 23.5789 25.175H1.17187V23.8218H38.8281V25.175ZM11.2673 22.65C11.8691 22.1389 12.3467 21.4863 12.6484 20.7438H27.3515C27.6533 21.4863 28.1308 22.1389 28.7326 22.65H11.2673Z" fill="#E8092E"/>
<path d="M31.9169 17.0469C30.8977 17.0469 30.0684 17.8762 30.0684 18.8955C30.0684 19.9149 30.8977 20.7442 31.9169 20.7442C32.9363 20.7442 33.7656 19.9149 33.7656 18.8955C33.7656 17.8762 32.9363 17.0469 31.9169 17.0469ZM31.9169 19.5723C31.5438 19.5723 31.2402 19.2687 31.2402 18.8955C31.2402 18.5223 31.5438 18.2187 31.9169 18.2187C32.2901 18.2187 32.5937 18.5223 32.5937 18.8955C32.5937 19.2687 32.2902 19.5723 31.9169 19.5723Z" fill="#E8092E"/>
<path d="M22.9646 8.74803H31.7042C32.0399 8.74803 32.3591 8.58663 32.5579 8.31616C32.7567 8.04577 32.8156 7.69296 32.7155 7.37265L31.4331 3.26898C31.2943 2.82422 30.8879 2.52539 30.4219 2.52539H22.9647C22.3805 2.52539 21.9053 3.00062 21.9053 3.58484V7.68858C21.9053 8.27272 22.3805 8.74803 22.9646 8.74803ZM23.0771 3.69719H30.3392L31.5514 7.57608H23.0771V3.69719Z" fill="#E8092E"/>
<path d="M10.8195 8.74811H19.493C20.0772 8.74811 20.5525 8.27288 20.5525 7.68866V3.58484C20.5525 3.00062 20.0772 2.52539 19.493 2.52539H12.5294C12.1004 2.52539 11.7165 2.78125 11.5514 3.17734L9.84153 7.28116C9.70496 7.6089 9.74106 7.98093 9.93793 8.27632C10.135 8.57171 10.4645 8.74811 10.8195 8.74811ZM12.6043 3.69726H19.3806V7.57616H10.9882L12.6043 3.69726Z" fill="#E8092E"/>
<path d="M18.343 10.0225H16.7646C16.441 10.0225 16.1787 10.2848 16.1787 10.6084C16.1787 10.932 16.441 11.1943 16.7646 11.1943H18.343C18.6667 11.1943 18.9289 10.932 18.9289 10.6084C18.9289 10.2848 18.6667 10.0225 18.343 10.0225Z" fill="#E8092E"/>
<path d="M30.5754 10.0225H28.9971C28.6734 10.0225 28.4111 10.2848 28.4111 10.6084C28.4111 10.932 28.6734 11.1943 28.9971 11.1943H30.5754C30.8991 11.1943 31.1614 10.932 31.1614 10.6084C31.1614 10.2848 30.8991 10.0225 30.5754 10.0225Z" fill="#E8092E"/>
</g>
<defs>
<clipPath id="clip0_251_2366">
<rect width="40" height="40" fill="white"/>
</clipPath>
</defs>
</svg>
