<svg width="40" height="40" viewBox="0 0 40 40" fill="none" xmlns="http://www.w3.org/2000/svg">
<path d="M27.4184 19.5723C26.7472 19.5723 26.2012 20.1184 26.2012 20.7895V22.0523C26.2012 22.7235 26.7472 23.2696 27.4184 23.2696H32.4692C33.1405 23.2696 33.6865 22.7235 33.6865 22.0523V20.7895C33.6865 20.1184 33.1405 19.5723 32.4692 19.5723H27.4184ZM32.5146 20.7895V22.0523C32.5146 22.0773 32.4942 22.0977 32.4692 22.0977H27.4184C27.3934 22.0977 27.373 22.0773 27.373 22.0523V20.7895C27.373 20.7645 27.3934 20.7441 27.4184 20.7441H32.4692C32.4943 20.7441 32.5146 20.7645 32.5146 20.7895Z" fill="#E8092E"/>
<path d="M33.6875 4.69004C33.6875 3.84488 32.9998 3.15723 32.1547 3.15723H15.8148C15.2516 3.15723 14.7352 3.46449 14.467 3.95918L9.02414 13.9978C8.90352 14.2213 8.83984 14.4736 8.83984 14.7275V16.6853C8.83984 17.5309 9.5275 18.2189 10.3727 18.2189H12.2664C12.5901 18.2189 12.8523 17.9565 12.8523 17.6329C12.8523 17.3093 12.5901 17.047 12.2664 17.047H10.3727C10.1736 17.047 10.0117 16.8847 10.0117 16.6853V14.7275C10.0117 14.6663 10.0264 14.608 10.055 14.5552L15.4971 4.5177C15.5602 4.40137 15.682 4.32902 15.8148 4.32902H32.1547C32.3538 4.32902 32.5156 4.4909 32.5156 4.68996V16.6853C32.5156 16.8847 32.3538 17.047 32.1547 17.047H15.0008C14.6771 17.047 14.4148 17.3093 14.4148 17.6329C14.4148 17.9565 14.6771 18.2189 15.0008 18.2189H32.1547C32.9998 18.2189 33.6875 17.5309 33.6875 16.6853V4.69004Z" fill="#E8092E"/>
<path d="M36.8435 7.6875C36.8435 7.36391 36.5812 7.10156 36.2575 7.10156C35.9339 7.10156 35.6716 7.36391 35.6716 7.6875V31.252H6.85441V25.9703C6.85441 25.6467 6.59215 25.3844 6.26848 25.3844C5.9448 25.3844 5.68254 25.6467 5.68254 25.9703V27.4638H4.37457C3.70332 27.4638 3.15723 28.0099 3.15723 28.6811V31.2065C3.15723 31.8777 3.70332 32.4238 4.37457 32.4238H5.68254V37.8359C5.68254 39.0292 6.65332 40 7.84652 40H34.6793C35.8726 40 36.8434 39.0292 36.8434 37.8359V7.6875H36.8435ZM35.6716 32.4237V33.7773H6.85441V32.4237H35.6716ZM4.37457 31.2519C4.34949 31.2519 4.3291 31.2315 4.3291 31.2064V28.681C4.3291 28.656 4.34949 28.6356 4.37457 28.6356H5.68254V31.2519H4.37457ZM34.6794 38.8281H7.8466C7.29957 38.8281 6.85449 38.383 6.85449 37.8359V34.9492H35.6716V37.8359C35.6716 38.383 35.2265 38.8281 34.6794 38.8281Z" fill="#E8092E"/>
<path d="M18.3542 10.7249C18.4687 10.8394 18.6186 10.8966 18.7686 10.8966C18.9185 10.8966 19.0685 10.8394 19.1829 10.7249L20.4107 9.49729C20.6395 9.26846 20.6395 8.89752 20.4107 8.66869C20.1819 8.43986 19.8109 8.43986 19.5821 8.66869L18.3543 9.89635C18.1254 10.1251 18.1254 10.4961 18.3542 10.7249Z" fill="#E8092E"/>
<path d="M17.8527 6.38063L16.0671 8.16634C15.8383 8.39517 15.8383 8.76618 16.0672 8.99493C16.1816 9.10939 16.3316 9.16657 16.4815 9.16657C16.6314 9.16657 16.7814 9.10939 16.8959 8.99493L18.6815 7.20923C18.9103 6.9804 18.9103 6.60938 18.6814 6.38063C18.4527 6.15173 18.0817 6.15181 17.8527 6.38063Z" fill="#E8092E"/>
<path d="M4.37457 21.3752H5.68254V23.2359C5.68254 23.5595 5.9448 23.8219 6.26848 23.8219C6.59215 23.8219 6.85441 23.5595 6.85441 23.2359V14.3273C6.85441 14.0049 6.93543 13.6853 7.08895 13.4027L13.3491 1.85664C13.5782 1.43422 14.0187 1.17188 14.4989 1.17188H34.6794C35.2265 1.17188 35.6716 1.61695 35.6716 2.16406V4.95312C35.6716 5.27672 35.9339 5.53906 36.2575 5.53906C36.5812 5.53906 36.8435 5.27672 36.8435 4.95312V2.16406C36.8435 0.970781 35.8726 0 34.6794 0H14.4989C13.5885 0 12.7531 0.497344 12.319 1.29805L6.05902 12.8438C5.81277 13.2972 5.68262 13.8102 5.68262 14.3273V16.4152H4.37457C3.70332 16.4152 3.15723 16.9613 3.15723 17.6325V20.1579C3.15723 20.8291 3.70332 21.3752 4.37457 21.3752ZM4.3291 17.6324C4.3291 17.6073 4.34949 17.587 4.37457 17.587H5.68254V20.2032H4.37457C4.34949 20.2032 4.3291 20.1828 4.3291 20.1578V17.6324Z" fill="#E8092E"/>
</svg>
